<?xml version="1.0" encoding="UTF-8"?>
<svg width="60px" height="60px" viewBox="0 0 60 60" version="1.1" xmlns="http://www.w3.org/2000/svg" xmlns:xlink="http://www.w3.org/1999/xlink">
    <title>ai</title>
    <g id="ai" stroke="none" stroke-width="1" fill="none" fill-rule="evenodd" fill-opacity="0.85">
        <g id="iconfinder_156_3417620" transform="translate(1.000000, 5.000000)" fill="#000000" fill-rule="nonzero" stroke="#000000" stroke-width="0.2">
            <path d="M43.7368147,26.258216 C44.1358909,27.9342723 45.5725649,29.1314554 47.3284998,29.1314554 C49.3238803,29.1314554 51,27.4553991 51,25.4600939 C51,23.4647887 49.3238803,21.7887324 47.3284998,21.7887324 C45.5725649,21.7887324 44.1358909,22.9859155 43.7368147,24.6619718 L24.5811613,24.6619718 L24.5811613,19.314554 L35.4360316,19.314554 C35.6754773,19.314554 35.9149229,19.2347418 35.9947381,19.0751174 L40.3047602,14.2065728 L43.7368147,14.2065728 C44.1358909,15.8826291 45.5725649,17.0798122 47.3284998,17.0798122 C49.3238803,17.0798122 51,15.4037559 51,13.4084507 C51,11.4131455 49.3238803,9.7370892 47.3284998,9.7370892 C45.5725649,9.7370892 44.1358909,10.9342723 43.7368147,12.6103286 L39.9854993,12.6103286 C39.7460536,12.6103286 39.5066079,12.6901408 39.4267927,12.8497653 L35.0369555,17.7183099 L24.5811613,17.7183099 L24.5811613,12.6901408 L32.6424988,12.6901408 C32.8819445,12.6901408 33.0415749,12.6103286 33.2012054,12.4507042 L36.7928904,8.85915493 C37.4314122,9.25821596 38.1497492,9.57746479 38.9479014,9.57746479 C40.943282,9.57746479 42.6194016,7.90140845 42.6194016,5.90610329 C42.6194016,3.91079812 40.943282,2.23474178 38.9479014,2.23474178 C36.9525208,2.23474178 35.2764011,3.91079812 35.2764011,5.90610329 C35.2764011,6.54460094 35.4360316,7.18309859 35.7552925,7.66197183 L32.3232379,11.0938967 L24.5811613,11.0938967 L24.5811613,7.58215962 C24.5811613,3.43192488 21.1491067,2.83549918e-15 16.9987152,2.83549918e-15 C13.4070301,2.83549918e-15 10.3740517,2.55399061 9.65571469,5.90610329 C7.18144278,6.46478873 5.18606222,8.22065728 4.30809477,10.6948357 C3.50994254,12.9295775 3.74938821,15.4037559 5.02643177,17.3192488 C-1.35878603,20.0328638 -1.75786215,29.1314554 4.38790999,32.4037559 C2.79160554,36.4741784 5.106247,41.342723 9.57589946,42.4600939 C8.93737768,46.8497653 12.3694323,51 16.9987152,51 C21.1491067,51 24.5811613,47.6478873 24.5811613,43.4178404 L24.5811613,38.9483568 L32.3232379,38.9483568 L35.7552925,42.3802817 C35.4360316,42.9389671 35.2764011,43.4976526 35.2764011,44.1361502 C35.2764011,46.1314554 36.9525208,47.8075117 38.9479014,47.8075117 C40.943282,47.8075117 42.6194016,46.1314554 42.6194016,44.1361502 C42.6194016,42.1408451 40.943282,40.4647887 38.9479014,40.4647887 C38.1497492,40.4647887 37.4314122,40.7042254 36.7928904,41.1830986 L33.2012054,37.5915493 C33.0415749,37.4319249 32.8819445,37.3521127 32.6424988,37.3521127 L24.5811613,37.3521127 L24.5811613,32.2441315 L35.0369555,32.2441315 L39.3469775,37.1126761 C39.5066079,37.2723005 39.7460536,37.3521127 39.9056841,37.3521127 L43.6569995,37.3521127 C44.0560756,39.028169 45.4927496,40.2253521 47.2486845,40.2253521 C49.2440651,40.2253521 50.9201848,38.5492958 50.9201848,36.5539906 C50.9201848,34.5586854 49.2440651,32.8826291 47.2486845,32.8826291 C45.4927496,32.8826291 44.0560756,34.0798122 43.6569995,35.7558685 L40.2249449,35.7558685 L35.9149229,30.8873239 C35.7552925,30.7276995 35.5158468,30.6478873 35.3562164,30.6478873 L24.5811613,30.6478873 L24.5811613,26.258216 L43.7368147,26.258216 Z M47.3284998,23.3849765 C48.4459129,23.3849765 49.4036955,24.342723 49.4036955,25.4600939 C49.4036955,26.5774648 48.4459129,27.5352113 47.3284998,27.5352113 C46.2110866,27.5352113 45.253304,26.5774648 45.253304,25.4600939 C45.253304,24.342723 46.2110866,23.3849765 47.3284998,23.3849765 Z M47.3284998,11.3333333 C48.4459129,11.3333333 49.4036955,12.2910798 49.4036955,13.4084507 C49.4036955,14.5258216 48.4459129,15.4835681 47.3284998,15.4835681 C46.2110866,15.4835681 45.253304,14.5258216 45.253304,13.4084507 C45.253304,12.2112676 46.2110866,11.3333333 47.3284998,11.3333333 Z M38.9479014,3.75117371 C40.0653145,3.75117371 41.0230972,4.70892019 41.0230972,5.82629108 C41.0230972,6.94366197 40.0653145,7.90140845 38.9479014,7.90140845 C37.8304883,7.90140845 36.8727056,6.94366197 36.8727056,5.82629108 C36.8727056,4.70892019 37.8304883,3.75117371 38.9479014,3.75117371 Z M41.0230972,44.2159624 C41.0230972,45.3333333 40.0653145,46.2910798 38.9479014,46.2910798 C37.8304883,46.2910798 36.8727056,45.3333333 36.8727056,44.2159624 C36.8727056,43.0985915 37.8304883,42.1408451 38.9479014,42.1408451 C40.0653145,42.1408451 41.0230972,43.0187793 41.0230972,44.2159624 Z M47.3284998,34.5586854 C48.4459129,34.5586854 49.4036955,35.5164319 49.4036955,36.6338028 C49.4036955,37.7511737 48.4459129,38.7089202 47.3284998,38.7089202 C46.2110866,38.7089202 45.253304,37.7511737 45.253304,36.6338028 C45.253304,35.5164319 46.2110866,34.5586854 47.3284998,34.5586854 Z M22.9848569,43.4178404 C22.9848569,46.6901408 20.2711393,49.4037559 16.9987152,49.4037559 C15.162965,49.4037559 13.4868454,48.6056338 12.289617,47.0892019 C9.25663857,43.1784038 12.0501714,37.4319249 16.9987152,37.4319249 C17.4776065,37.4319249 17.7968674,37.1126761 17.7968674,36.6338028 C17.7968674,36.1549296 17.4776065,35.8356808 16.9987152,35.8356808 C13.726291,35.8356808 10.9327582,37.9906103 9.89516035,40.8638498 C6.38329056,39.9859155 4.54754044,36.1549296 5.824584,32.9624413 C8.85756246,33.9201878 12.1299866,33.1220657 14.2849976,30.8873239 C14.6042585,30.5680751 14.6042585,30.0892019 14.2849976,29.7699531 C13.9657367,29.4507042 13.4868454,29.4507042 13.1675845,29.7699531 C8.77774724,34.1596244 1.19530109,30.8075117 1.5943772,24.5023474 C1.99345331,18.5962441 9.09700813,16.0422535 13.1675845,20.1126761 C13.4868454,20.4319249 13.9657367,20.4319249 14.2849976,20.1126761 C14.6042585,19.7934272 14.6042585,19.314554 14.2849976,18.9953052 C12.2098018,16.9201878 9.3364538,16.2018779 6.62273623,16.7605634 C4.14846433,13.4882629 5.74476878,8.77934272 9.49608424,7.58215962 C9.57589946,11.7323944 12.9281388,15.0046948 17.0785304,15.0046948 C17.5574217,15.0046948 17.8766826,14.685446 17.8766826,14.2065728 C17.8766826,13.7276995 17.5574217,13.4084507 17.0785304,13.4084507 C13.8061063,13.4084507 11.0923887,10.7746479 11.0923887,7.42253521 C11.0923887,4.07042254 13.8061063,1.43661972 17.0785304,1.43661972 C20.3509545,1.43661972 23.0646721,4.15023474 23.0646721,7.42253521 L23.0646721,43.4178404 L22.9848569,43.4178404 Z" id="Shape"></path>
        </g>
    </g>
</svg>