<?xml version="1.0" encoding="UTF-8"?>
<svg width="60px" height="60px" viewBox="0 0 60 60" version="1.1" xmlns="http://www.w3.org/2000/svg" xmlns:xlink="http://www.w3.org/1999/xlink">
    <title>android</title>
    <g id="android" stroke="none" stroke-width="1" fill="none" fill-rule="evenodd" fill-opacity="0.85">
        <g id="iconfinder_android_robot_279386" transform="translate(0.000000, 5.000000)" fill="#000000">
            <path d="M0,32.8278812 L0,22.663982 C0,20.417695 1.59849855,18.4728875 3.7331396,18.4728875 C5.88019162,18.4728875 7.46876122,20.4275793 7.46876122,22.663982 L7.46876122,32.8278812 C7.46876122,35.0766393 5.86778006,37.0189742 3.7331396,37.0189742 C1.58608788,37.0189742 0,35.066755 0,32.8278812 Z M5.6071559,32.8278812 L5.6071559,22.663982 C5.6071559,21.2875444 4.66890667,20.326262 3.7331396,20.326262 C2.78496187,20.326262 1.86160548,21.2998998 1.86160548,22.663982 L1.86160548,32.8278812 C1.86160548,34.2067899 2.79737254,35.1656012 3.7331396,35.1656012 C4.68131734,35.1656012 5.6071559,34.1944345 5.6071559,32.8278812 Z" id="path3332"></path>
            <path d="M33.5312388,32.8501209 L33.5312388,22.6763389 C33.5312388,20.4300504 35.1297382,18.4852444 37.2643793,18.4852444 C39.4114304,18.4852444 41,20.4399347 41,22.6763389 L41,32.8501209 C41,35.0988805 39.3990203,37.0412155 37.2643793,37.0412155 C35.1173267,37.0412155 33.5312388,35.0889962 33.5312388,32.8501209 Z M39.1383954,32.8501209 L39.1383954,22.6763389 C39.1383954,21.2998998 38.2001457,20.3386174 37.2643793,20.3386174 C36.3162012,20.3386174 35.3928448,21.3122552 35.3928448,22.6763389 L35.3928448,32.8501209 C35.3928448,34.2290312 36.3286113,35.1878425 37.2643793,35.1878425 C38.2125558,35.1878425 39.1383954,34.2166743 39.1383954,32.8501209 Z" id="path3336"></path>
            <path d="M15.8459871,11.071751 C16.3597902,11.071751 16.7767886,11.902063 16.7767886,12.925124 C16.7767886,13.9481864 16.3597902,14.7784984 15.8459871,14.7784984 C15.3321839,14.7784984 14.915184,13.9481864 14.915184,12.925124 C14.915184,11.902063 15.3321839,11.071751 15.8459871,11.071751 Z" id="path3338"></path>
            <path d="M25.1540144,11.071751 C25.6678176,11.071751 26.0848175,11.902063 26.0848175,12.925124 C26.0848175,13.9481864 25.6678176,14.7784984 25.1540144,14.7784984 C24.6402113,14.7784984 24.2232114,13.9481864 24.2232114,12.925124 C24.2232114,11.902063 24.6402113,11.071751 25.1540144,11.071751 Z" id="path3340"></path>
            <path d="M22.3616053,45.8089056 L22.3616053,40.7479616 L18.6383947,40.7479616 L18.6383947,45.8014922 C18.6383947,48.0502515 17.0374135,49.9925865 14.9027725,49.9925865 C12.7557213,49.9925865 11.1696335,48.0403669 11.1696335,45.8014922 L11.1696335,40.7479616 L9.56865229,40.7479616 C7.45138623,40.7479616 5.66176334,39.1021668 5.66176334,36.9843791 L5.66176334,20.3386174 L5.60467373,20.3386174 L5.60467373,18.4877155 C5.60219157,18.3493304 5.60219157,18.2109453 5.60219157,18.0750313 C5.60219157,13.0091437 8.28786766,8.55857808 12.3412032,5.978683 L9.44702733,1.42185633 C9.17151063,0.989401992 9.30058074,0.416091478 9.73495559,0.14426346 C10.1693304,-0.13003564 10.745187,-0.00153488009 11.0182219,0.430919459 L13.9694877,5.07670808 C15.9427904,4.14013651 18.1593415,3.61377805 20.5000007,3.61377805 C22.7786052,3.61377805 24.9405496,4.1154242 26.8766191,5.00998587 L29.7856882,0.430919459 C30.0587247,-0.00153488009 30.6345812,-0.13003564 31.068956,0.14426346 C31.5033294,0.416091478 31.632401,0.989401992 31.3568843,1.42185633 L28.5148319,5.89219213 C32.0767042,8.11129725 34.6109701,11.7612068 35.2389516,16.0140799 L35.3680232,17.3534513 L35.3953266,17.4770085 L35.3953266,36.9843791 C35.3953266,39.1021668 33.6057037,40.7479616 31.4884376,40.7479616 L29.8303665,40.7479616 L29.8303665,45.8089056 C29.8303665,48.0576651 28.2293869,50 26.0947458,50 C23.9476932,50 22.3616053,48.0477803 22.3616053,45.8089056 Z M27.968762,45.8089056 L27.968762,40.7479616 L24.2232114,40.7479616 L24.2232114,45.8089056 C24.2232114,47.1878153 25.1589779,48.1466269 26.0947458,48.1466269 C27.0429239,48.1466269 27.968762,47.1754594 27.968762,45.8089056 Z M16.7767886,45.8014922 L16.7767886,40.7479616 L13.0312395,40.7479616 L13.0312395,45.8014922 C13.0312395,47.1804017 13.967006,48.1392135 14.9027725,48.1392135 C15.8509505,48.1392135 16.7767886,47.168046 16.7767886,45.8014922 Z M11.1696335,38.8945884 L11.1696335,38.8698761 L13.0312395,38.8698761 L13.0312395,38.8945884 L16.7767886,38.8945884 L16.7767886,38.8698761 L18.6383947,38.8698761 L18.6383947,38.8945884 L22.3616053,38.8945884 L22.3616053,38.8698761 L24.2232114,38.8698761 L24.2232114,38.8945884 L27.968762,38.8945884 L27.968762,38.8698761 L29.8303665,38.8698761 L29.8303665,38.8945884 L31.4884376,38.8945884 C32.6550439,38.8945884 33.5337205,38.0024979 33.5337205,36.9843791 L33.5188287,20.3386174 L7.52336792,20.3386174 L7.52336792,36.9843791 C7.52336792,38.0024979 8.40204598,38.8945884 9.56865229,38.8945884 L11.1696335,38.8945884 Z M33.5188287,18.4877155 L33.5188287,17.5289042 C33.2160072,10.8419328 27.5194938,5.46715104 20.5000007,5.46715104 C13.2794529,5.46715104 7.46379779,11.1434153 7.46379779,18.0750313 L7.46876122,18.3913403 L7.48861793,18.4877155 L33.5188287,18.4877155 Z" id="path3342"></path>
        </g>
    </g>
</svg>