<?xml version="1.0" encoding="UTF-8"?>
<svg width="60px" height="60px" viewBox="0 0 60 60" version="1.1" xmlns="http://www.w3.org/2000/svg" xmlns:xlink="http://www.w3.org/1999/xlink">
    <title>ar</title>
    <g id="ar" stroke="none" stroke-width="1" fill="none" fill-rule="evenodd" opacity="0.85">
        <g id="iconfinder_e_0034_agumentedReality_set_v01_exp-01_3200600" transform="translate(0.000000, 2.000000)" fill="#000000" fill-rule="nonzero" stroke="#000000" stroke-width="0.5">
            <path d="M36.4592092,4.79161242 L13.5410421,4.79161242 C11.9244108,4.81273337 10.6190197,6.11458677 10.5978413,7.72683684 L10.5978413,53.0645073 C10.5996324,54.6848465 11.9162997,55.9979455 13.5410421,55.9998671 L36.4592092,55.9998671 C38.0665965,56.0150374 39.3831568,54.7300079 39.40241,53.1270187 L39.40241,7.72683684 C39.4006189,6.10649761 38.0839516,4.79339865 36.4592092,4.79161242 Z M21.0363164,7.28956946 C20.5331998,7.3026909 20.0502133,7.0923489 19.7179,6.7153953 L19.0170723,6.04059094 L24.3739394,6.04059094 L24.3739394,7.28956946 L21.0363164,7.28956946 Z M25.6263119,6.04059094 L31.3606691,6.04059094 L30.7055154,6.69465601 C30.3419368,7.04314046 29.867459,7.25362865 29.3644749,7.28956946 L25.6263119,7.28956946 L25.6263119,6.04059094 Z M38.1500374,53.1270187 C38.1205321,54.0356863 37.3708104,54.7556583 36.4592092,54.7507781 L13.5410421,54.7507781 C12.6076826,54.7496486 11.8513215,53.9953373 11.8502139,53.0645073 L11.8502139,7.72683684 C11.8734694,6.80532652 12.6170276,6.06378341 13.5410421,6.04059094 L17.2142508,6.04059094 L18.8116519,7.57589778 C19.3764752,8.20563959 20.1893205,8.55737159 21.0363164,8.53854798 L29.3644687,8.53854798 C30.1856366,8.50330366 30.9660536,8.17195967 31.5607043,7.60608559 L33.1304594,6.04059094 L36.4592092,6.04059094 C37.3925687,6.04169554 38.1489298,6.79600687 38.1500374,7.72683684 L38.1500374,53.1270187 Z M24.3739394,1.87346778 L24.3739394,0.62448926 C24.3739394,0.279593365 24.6542925,0 25.0001257,0 C25.3459588,0 25.6263119,0.279593365 25.6263119,0.62448926 L25.6263119,1.87346778 C25.6263119,2.21836367 25.3459588,2.49795704 25.0001257,2.49795704 C24.6542925,2.49795704 24.3739394,2.21836367 24.3739394,1.87346778 Z M24.3739394,13.4390089 L24.3739394,11.3362599 C24.3739394,10.991364 24.6542925,10.7117706 25.0001257,10.7117706 C25.3459588,10.7117706 25.6263119,10.991364 25.6263119,11.3362599 L25.6263119,13.4390339 C25.6263119,13.7839297 25.3459588,14.0635231 25.0001257,14.0635231 C24.6542925,14.0635231 24.3739394,13.7839297 24.3739394,13.4390339 L24.3739394,13.4390089 Z M49.9160775,44.9729812 C49.7430607,45.2716033 49.3601611,45.3739606 49.0605756,45.2016755 L47.9760648,44.5771862 C47.7821575,44.4656927 47.6626529,44.2594721 47.6625941,44.0362518 C47.6625353,43.8130315 47.7819312,43.6067482 47.9757797,43.4951532 C48.1696282,43.3835582 48.4084582,43.3836174 48.6022511,43.4953085 L49.6867618,44.1197978 C49.9862487,44.2923048 50.0888976,44.6742163 49.9160775,44.9729812 Z M44.3363571,41.7602775 C44.1633403,42.0588995 43.7804407,42.1612569 43.4808551,41.9889717 L40.9122265,40.5097752 C40.612859,40.3372369 40.510334,39.9553957 40.6831881,39.6567514 C40.8560421,39.3581071 41.2388686,39.2556646 41.5384128,39.4278975 L44.1070602,40.9070753 C44.4065583,41.0795829 44.5092087,41.4615084 44.3363758,41.7602775 L44.3363571,41.7602775 Z M37.0428963,36.8396831 L36.2714786,36.3954776 L36.2714786,24.4974834 C36.2715393,24.2743285 36.1521781,24.0681053 35.9583855,23.9565446 L25.6263119,18.0075038 L25.6263119,17.119174 C25.6263119,16.7742781 25.3459588,16.4946848 25.0001257,16.4946848 C24.6542925,16.4946848 24.3739394,16.7742781 24.3739394,17.119174 L24.3739394,18.0075038 L14.0418658,23.9565633 C13.8480732,24.068124 13.728712,24.2743473 13.7287727,24.4975022 L13.7287727,36.3954776 L12.9573551,36.8396768 C12.6579876,37.0122151 12.5554626,37.3940564 12.7283166,37.6927007 C12.9011707,37.991345 13.2839971,38.0937874 13.5835413,37.9215545 L14.354959,37.4773803 L24.6870325,43.4264211 C24.8808167,43.537821 25.1194346,43.537821 25.3132188,43.4264211 L35.6452923,37.4773803 L36.41671,37.9215795 C36.6105028,38.0332706 36.8493328,38.0333298 37.0431813,37.9217348 C37.2370298,37.8101398 37.3563669,37.6038565 37.3563669,37.3806362 C37.3563669,37.1574159 37.2368035,36.9511953 37.0428963,36.8397018 L37.0428963,36.8396831 Z M25.0001257,19.089294 L34.3928071,24.497371 L25.0001257,29.9055791 L15.6074442,24.4974022 L25.0001257,19.089294 Z M14.9811453,25.5792425 L24.3739394,30.9874568 L24.3739394,41.8038856 L14.9811453,36.3957087 L14.9811453,25.5792425 Z M25.6263119,41.8038856 L25.6263119,30.9874568 L35.019106,25.5792425 L35.019106,36.3957087 L25.6263119,41.8038856 Z M2.25348342,43.7240027 C2.42630349,44.0227676 2.32365465,44.4046792 2.02416775,44.5771862 L0.939656951,45.2016755 C0.745864103,45.3133666 0.507034143,45.3134258 0.31318564,45.2018308 C0.119337137,45.0902357 -5.87588233e-05,44.8839524 2.16939295e-08,44.6607322 C5.88456311e-05,44.4375119 0.119563406,44.2312912 0.313470677,44.1197978 L1.39798147,43.4953085 C1.69755438,43.3229272 2.08052582,43.4253038 2.25348342,43.7240027 L2.25348342,43.7240027 Z M9.3173405,39.6565918 C9.49016057,39.9553567 9.38751173,40.3372682 9.08802483,40.5097752 L6.51937742,41.9889717 C6.32558457,42.1006628 6.08675461,42.1007221 5.89290611,41.989127 C5.6990576,41.877532 5.57966171,41.6712487 5.57972049,41.4480284 C5.57977931,41.2248082 5.69928387,41.0185875 5.89319114,40.907094 L8.46183855,39.4278975 C8.60566349,39.3449516 8.77665882,39.3224481 8.93713547,39.365347 C9.09761212,39.4082458 9.23439669,39.5130256 9.3173405,39.6565918 Z" id="Shape"></path>
        </g>
    </g>
</svg>