<?xml version="1.0" encoding="UTF-8"?>
<svg width="60px" height="60px" viewBox="0 0 60 60" version="1.1" xmlns="http://www.w3.org/2000/svg" xmlns:xlink="http://www.w3.org/1999/xlink">
    <title>blockchain</title>
    <g id="blockchain" stroke="none" stroke-width="1" fill="none" fill-rule="evenodd" opacity="0.85">
        <g id="iconfinder_block_network_4162807" transform="translate(1.000000, 1.000000)" fill="#000000" fill-rule="nonzero" stroke="#000000" stroke-width="0.5">
            <path d="M4.1718948,20.8071507 C3.43861413,20.8095236 2.71824487,20.6125877 2.08655842,20.2370361 C0.625082508,19.3853318 -0.184198985,17.7300516 0.0357171017,16.0423065 C0.255633187,14.3545615 1.4614899,12.9663268 3.09153981,12.5243107 C4.16468305,12.2266053 5.31154643,12.3782584 6.2723059,12.9449127 C6.90146616,13.3140816 7.42848742,13.8368565 7.80490252,14.4651608 C7.87473556,14.5864426 7.93764918,14.7116443 7.99333653,14.8401553 L7.99333653,14.8705603 C8.01343615,14.9187015 8.03604823,14.9668427 8.05363541,15.0149839 C8.07122258,15.063125 8.0812724,15.083395 8.09383466,15.123935 C8.10639693,15.1644749 8.12900901,15.2176836 8.14408373,15.2683585 C8.15915845,15.3190335 8.1893079,15.4077146 8.20940752,15.483727 C8.22950715,15.5597394 8.22950715,15.5597394 8.23704451,15.5952119 C8.24458187,15.6306843 8.25463169,15.6661568 8.26216905,15.7016292 L8.26216905,15.7295005 C8.26359635,15.7438223 8.26359635,15.7582523 8.26216905,15.7725742 L8.26216905,15.8156479 C8.26216905,15.8688565 8.28226867,15.9322002 8.29231849,15.9980776 L8.29231849,16.07409 C8.29231849,16.1374337 8.30739321,16.1982436 8.31241812,16.2641211 C8.34270632,16.6437208 8.32072293,17.0257219 8.24709433,17.3992396 C8.21334019,17.5796227 8.16716677,17.7574153 8.10890939,17.9313265 C8.04968631,18.1047391 7.97918455,18.2740231 7.89786329,18.4380759 C7.86017649,18.5216895 7.81495233,18.6078369 7.76721571,18.6914505 C7.67948134,18.8459086 7.58126142,18.9940639 7.47325866,19.1348562 C7.43054695,19.1931324 7.37527297,19.2615436 7.319999,19.327421 C7.26472502,19.3932984 7.20191368,19.4591758 7.1416148,19.5225195 C7.08131592,19.5858632 7.04362911,19.6213356 6.98584268,19.6720106 C6.96929185,19.6916264 6.95076806,19.7094581 6.93056871,19.7252193 C6.89036945,19.7606917 6.8501702,19.7961642 6.80745849,19.8291029 C6.7474612,19.8816524 6.68454821,19.9307175 6.61902448,19.9760602 C6.56476139,20.0195381 6.50768603,20.0593216 6.44817764,20.0951463 L6.42054065,20.1128825 C6.36777913,20.148355 6.31501761,20.1812937 6.25974363,20.2116986 C6.16063589,20.2722116 6.05830881,20.3271922 5.95322431,20.3763922 L5.74469067,20.4701408 L5.64921744,20.508147 C5.5864061,20.5334845 5.52359477,20.5537545 5.45575852,20.5765582 C5.3470723,20.6141554 5.23634373,20.645456 5.12411467,20.6703068 L4.99095463,20.7032455 L4.95829274,20.7032455 L4.89296895,20.7032455 C4.81759534,20.718448 4.74473419,20.728583 4.66936059,20.738718 C4.50500093,20.7712704 4.3388961,20.794113 4.1718948,20.8071507 Z M4.18696952,13.6442268 C3.13791862,13.6454902 2.16861506,14.209035 1.64185416,15.123935 C0.842438141,16.5342089 1.32433958,18.3308831 2.7196967,19.1424575 C3.15947047,19.4043722 3.66116024,19.5417993 4.1718948,19.5402746 C4.29711654,19.5407297 4.42221446,19.5322627 4.54625037,19.5149183 C4.6090617,19.5149183 4.66936059,19.4997158 4.72965947,19.487047 L4.75980891,19.487047 L4.87286932,19.4591758 C4.94859178,19.4425789 5.02326139,19.4214266 5.09647768,19.3958322 C5.15175165,19.3780959 5.19948827,19.3628935 5.24722488,19.3426235 L5.27486187,19.3426235 L5.30501131,19.3299547 C5.35638003,19.3097481 5.40669435,19.2869148 5.45575852,19.2615436 C5.52764698,19.2290922 5.59731236,19.1918481 5.66429216,19.1500587 L5.71202878,19.1247212 L5.76227785,19.0917825 C5.7847677,19.0751247 5.80826255,19.0598929 5.83262654,19.0461751 C5.86346965,19.0282544 5.89287174,19.0079221 5.92056241,18.9853652 L6.03111037,18.9017515 L6.06125981,18.8738803 C6.08635565,18.8556316 6.10988787,18.8352902 6.13160851,18.8130704 L6.17432021,18.7750642 L6.18939494,18.7750642 C6.22205683,18.7446592 6.25471873,18.7142543 6.28486817,18.6813155 C6.31501761,18.6483768 6.36777913,18.5951682 6.39792857,18.557162 L6.42054065,18.5318245 C6.45320255,18.4938183 6.48586444,18.4532783 6.51601389,18.4102046 C6.59095414,18.3138794 6.65896405,18.2122701 6.71952262,18.106155 C6.75218451,18.0478788 6.78233395,17.9870689 6.8124834,17.926259 C6.8692619,17.806084 6.9187643,17.6825484 6.96071815,17.5563319 C7.00147969,17.4344905 7.03421289,17.3100659 7.05870384,17.1838712 C7.10913199,16.9184932 7.12350117,16.6474271 7.10141554,16.3781397 C7.10374429,16.3460885 7.10374429,16.3139084 7.10141554,16.2818573 C7.10017414,16.2726091 7.10017414,16.2632343 7.10141554,16.2539861 L7.10141554,16.1805074 C7.10141554,16.1526362 7.10141554,16.104495 7.08131592,16.0588876 L7.08131592,16.0056789 C7.08274932,15.9922042 7.08274932,15.9786136 7.08131592,15.9651389 C7.07510842,15.9443285 7.07007545,15.92318 7.0662412,15.9017953 C7.0662412,15.884059 7.0662412,15.8663228 7.0662412,15.8511203 C7.0662412,15.8359178 7.0662412,15.8232491 7.0662412,15.8207154 C7.05550375,15.7751855 7.04208011,15.7303428 7.02604194,15.6864268 L6.99840495,15.6002794 C6.99312659,15.5897552 6.98891773,15.5787194 6.98584268,15.5673407 L6.97076796,15.524267 C6.94815588,15.4710583 6.93056871,15.4279846 6.91046908,15.3874446 L6.89539436,15.3494384 C6.86429448,15.2773334 6.82906059,15.2071144 6.78987131,15.1391374 C6.5086486,14.6770955 6.11178588,14.2978418 5.63916763,14.0394913 C5.19824111,13.7806377 4.69716546,13.6442268 4.18696952,13.6442268 Z" id="Shape"></path>
            <path d="M46.7730558,20.8071393 C46.5924368,20.8067543 46.4120203,20.7949067 46.2328783,20.7716567 L46.004245,20.7361842 L45.9565084,20.7361842 C45.871085,20.718448 45.7831491,20.6956443 45.7052631,20.6728406 C45.6203449,20.6536277 45.536482,20.6299471 45.4540177,20.6018957 C45.2814778,20.5447402 45.1134966,20.4744373 44.951527,20.3915947 C44.8485386,20.346658 44.7493823,20.29327 44.6550575,20.2319686 C44.6037319,20.2057902 44.5542089,20.1761631 44.5068228,20.1432875 L44.4264243,20.0900788 L44.2932642,19.9963302 C44.2304529,19.9507227 44.1651291,19.9000478 44.0998053,19.8443054 L43.9867449,19.748023 C43.9557201,19.7220425 43.9263501,19.6941159 43.898809,19.6644093 C43.8586098,19.6264031 43.8158981,19.5858632 43.7756988,19.5427895 L43.7430369,19.507317 C43.6978128,19.4591758 43.6551011,19.4135684 43.6174143,19.3679609 C43.5893846,19.3385193 43.5633631,19.3071981 43.5395282,19.2742123 C43.5018414,19.2286049 43.4641546,19.1829974 43.4314927,19.1348562 C43.3265566,18.9961437 43.2308728,18.8505551 43.145073,18.6990518 C42.7212161,17.9570397 42.5318939,17.1022892 42.602383,16.2489186 C42.605402,16.1920686 42.6112719,16.1354091 42.6199702,16.0791575 C42.6199702,16.0462188 42.6199702,16.0158139 42.6199702,15.9854089 L42.6425823,15.8384516 C42.6817542,15.6233497 42.73719,15.411586 42.8084042,15.2050149 C42.8285039,15.1442049 42.8561409,15.07326 42.8812654,15.0048489 L42.8988526,14.9643089 L42.9189522,14.9212352 L42.956639,14.8325541 C43.0099455,14.7099967 43.0703484,14.590705 43.1375356,14.4752958 C43.5136728,13.8476386 44.0397067,13.3249863 44.6676198,12.9550477 C45.9605374,12.1705068 47.5724602,12.1499411 48.8846448,12.9012447 C50.1968297,13.6525483 51.0053857,15.0589817 50.999973,16.5806797 C50.9945055,18.1023777 50.1759145,19.5028951 48.8583922,20.2446374 C48.2247783,20.6146704 47.505242,20.8087557 46.7730558,20.8071393 Z M46.1801168,19.4819796 L46.2152911,19.4819796 C46.27559,19.4819796 46.3358889,19.5022495 46.3987002,19.5098508 C47.0315978,19.5915867 47.6735649,19.4606803 48.2252539,19.13739 C49.1698947,18.6318228 49.7652047,17.6462191 49.7772992,16.5678011 C49.7893939,15.4893831 49.2163407,14.4904531 48.28328,13.9634689 C47.3502191,13.4364846 46.206229,13.4656442 45.3007581,14.0394913 C44.8565942,14.3000217 44.4849594,14.6695766 44.2204031,15.1138 C44.1747438,15.1902564 44.134446,15.2698415 44.0998053,15.3519722 L44.0721683,15.4102484 C44.0721683,15.4330521 44.0545812,15.4533221 44.0445313,15.4761258 L43.9967947,15.6078806 C43.9462851,15.7513737 43.907629,15.8988336 43.8812219,16.0487526 L43.8661471,16.1374337 C43.8672391,16.1517705 43.8672391,16.1661706 43.8661471,16.1805074 L43.8661471,16.2058449 C43.8673594,16.2201767 43.8673594,16.2345867 43.8661471,16.2489186 C43.8636729,16.2750412 43.8636729,16.3013421 43.8661471,16.3274647 C43.8133542,16.9299188 43.9458178,17.5341528 44.2455276,18.0580138 C44.3044384,18.1656076 44.3707626,18.2689003 44.4440114,18.3671309 C44.4505815,18.3725649 44.4557531,18.3795187 44.4590862,18.3874009 C44.4778085,18.4130109 44.4979397,18.4375423 44.519385,18.4608796 L44.5545594,18.506487 C44.5616958,18.5120016 44.5676742,18.5188918 44.5721466,18.526757 C44.6048085,18.5647632 44.6374704,18.5977019 44.6701323,18.6331744 C44.676184,18.6405544 44.6829139,18.6473412 44.6902319,18.6534443 C44.713257,18.6791776 44.7375761,18.7037027 44.763093,18.726923 L44.8083172,18.7699967 C44.8510289,18.8105366 44.8811783,18.8358741 44.9088153,18.8586778 L44.9364523,18.8814815 C44.9691142,18.9118865 45.0042886,18.937224 45.0369505,18.9625614 L45.1248863,19.0208376 L45.1650856,19.0487088 L45.1324237,19.0309726 C45.1576015,19.0446775 45.1819331,19.0599079 45.2052848,19.0765801 C45.2203596,19.0765801 45.2304094,19.0943163 45.2429716,19.1019175 C45.2649129,19.1108291 45.2859479,19.12186 45.305783,19.1348562 C45.3645056,19.1743818 45.4267478,19.2083113 45.4917045,19.2362061 C45.6106813,19.2965476 45.7341706,19.3473787 45.8610352,19.3882309 L46.031882,19.4389059 L46.1801168,19.4819796 Z" id="Shape"></path>
            <path d="M25.4724753,8.41203955 C25.382027,8.41203955 25.2966036,8.41203955 25.2061552,8.41203955 C25.1296307,8.40955686 25.0533021,8.40278978 24.977522,8.39176958 C24.9057032,8.38546896 24.8343665,8.37446619 24.7639634,8.35883087 L24.67854,8.35883087 C24.6217552,8.34941283 24.5655517,8.33672332 24.5102056,8.32082467 L24.434832,8.30308844 L24.3720207,8.28788596 L24.2438856,8.24987975 C24.1810742,8.23214353 24.1157504,8.2093398 24.0554515,8.18653608 L23.897167,8.12572616 L23.7564696,8.06491623 L23.7162703,8.04211251 C23.6635088,8.01930879 23.6107473,7.99397132 23.5604982,7.96610011 L23.4976869,7.9331614 C23.4339479,7.90245971 23.3726325,7.86688337 23.3142778,7.82674403 C23.1767791,7.74374233 23.0449944,7.65147303 22.9198226,7.55056562 C22.726868,7.39891814 22.5485311,7.22924988 22.3871824,7.04381625 C22.3444707,6.99567506 22.2967341,6.93739888 22.25151,6.87912271 L22.2113107,6.82844777 C22.1886986,6.80057655 22.168599,6.77270534 22.1484994,6.74230038 L22.1233748,6.70936167 L22.1032752,6.6840242 C22.0253891,6.57000559 21.9550404,6.45852073 21.8796668,6.32423215 C21.493614,5.69025574 21.29086,4.96012251 21.294223,4.21615476 C21.294223,1.88763678 23.1660384,0 25.4749878,0 C27.783937,0 29.6557525,1.88763678 29.6557525,4.21615476 C29.6591155,4.96012251 29.4563615,5.69025574 29.0703087,6.32423215 C29.0052957,6.44287097 28.9340068,6.55790008 28.8567501,6.66882172 L28.8039886,6.74230038 L28.7386648,6.82844777 L28.6934407,6.88672395 C28.6532414,6.93739888 28.6055048,6.99314131 28.5577682,7.04888375 C28.3972674,7.23424962 28.2197706,7.40391899 28.0276405,7.55563312 C27.9031047,7.65544427 27.7721725,7.74685783 27.6356977,7.82927778 C27.5764297,7.86935603 27.5142839,7.90492687 27.4497762,7.93569514 L27.3894773,7.96863385 C27.3392282,7.99650507 27.2864667,8.02184254 27.2362176,8.04464626 L27.2136056,8.04464626 C27.1432569,8.07758497 27.0904953,8.10038869 27.0427587,8.11812492 C26.9950221,8.13586115 26.9472855,8.15866487 26.894524,8.1764011 C26.8417624,8.19413732 26.7689013,8.22200854 26.70609,8.23974477 L26.5779548,8.27775097 L26.5352431,8.27775097 L26.4397699,8.30055469 C26.3778422,8.31795127 26.314912,8.33149017 26.2513359,8.34109464 L26.1860121,8.34109464 C26.1156089,8.35672996 26.0442723,8.36773273 25.9724535,8.37403335 C25.8895426,8.37403335 25.8066316,8.39430332 25.7212082,8.39683707 C25.6357848,8.39937082 25.5629236,8.41203955 25.4724753,8.41203955 Z M25.0780201,7.11982866 L25.1257567,7.11982866 C25.1740252,7.1275294 25.2226696,7.13260421 25.271479,7.13503114 C25.3986275,7.14382327 25.5262235,7.14382327 25.653372,7.13503114 L25.8191939,7.11729491 L25.8719554,7.11729491 C25.8911287,7.1199352 25.9105685,7.1199352 25.9297418,7.11729491 C25.9568834,7.10978529 25.9846271,7.10469819 26.0126528,7.10209243 L26.0528521,7.10209243 C26.0767553,7.09946313 26.1003281,7.09436899 26.1232008,7.08688995 L26.1684249,7.08688995 L26.2488234,7.06661997 L26.3191721,7.04635 L26.3442967,7.04635 L26.4422823,7.01341129 L26.4774567,7.01341129 L26.567905,6.97793883 L26.6608658,6.93739888 C26.6768794,6.92595988 26.6947276,6.91738872 26.7136273,6.91206142 L26.7890009,6.87405521 L26.8367375,6.85125149 L26.8794492,6.82591402 C26.9041776,6.81479402 26.9277439,6.80121341 26.9497979,6.78537407 L26.9774349,6.76763784 C27.0719142,6.71128911 27.1625636,6.64865114 27.2487799,6.58014058 C27.3823949,6.46113872 27.5036206,6.32869798 27.6105732,6.18487607 L27.7110713,6.06578997 L27.7236336,6.05058749 C27.7289032,6.04108246 27.7356946,6.03252124 27.7437332,6.02525002 C27.758808,6.00498004 27.7713702,5.98471007 27.7864449,5.96697384 L27.836694,5.89602893 C27.8768933,5.8402865 27.9221174,5.76427409 27.9799039,5.66292422 L27.9949786,5.635053 C28.2619634,5.20084511 28.4013549,4.69917613 28.3969711,4.18828355 C28.3969711,2.55944044 27.0876296,1.23900221 25.4724753,1.23900221 C23.8573208,1.23900221 22.5479795,2.55944044 22.5479795,4.18828355 C22.5435958,4.69917613 22.6829872,5.20084511 22.949972,5.635053 L22.9600218,5.6781267 C23.0055867,5.76533089 23.0559131,5.84991907 23.110769,5.93150138 L23.1559932,5.99484505 L23.1961925,6.05058749 C23.204231,6.05785871 23.2110224,6.06641993 23.2162921,6.07592495 C23.2464415,6.1164649 23.2791034,6.15447111 23.3117653,6.19247731 C23.4219797,6.3196038 23.5439674,6.43583799 23.6760711,6.53960063 C23.7629194,6.60921395 23.854422,6.67270808 23.9499285,6.72963164 L23.9775655,6.74736787 L24.0353519,6.78284033 L24.0906259,6.81071154 L24.1383625,6.83604901 C24.162442,6.85072417 24.187647,6.86343342 24.2137361,6.87405521 C24.2402801,6.88363204 24.2655862,6.89639232 24.2891097,6.91206142 L24.3494086,6.93739888 L24.4499067,6.97540509 L24.4850811,6.97540509 L24.5830668,7.0083438 L24.6081913,7.0083438 L24.67854,7.02861377 L24.7589385,7.04888375 L24.8041627,7.04888375 C24.8270354,7.05636278 24.8506082,7.06145693 24.8745114,7.06408623 L24.8996359,7.06408623 C24.9326896,7.06753341 24.9654424,7.07346193 24.9976216,7.08182245 L25.0780201,7.11982866 Z" id="Shape"></path>
            <path d="M4.17440725,45.6023759 C2.28724899,45.5985958 0.637158688,44.3188225 0.149077747,42.4804199 C-0.339003196,40.6420171 0.456251913,38.7019735 2.08907088,37.7477606 C2.72025655,37.3729141 3.43939665,37.1752022 4.1718948,37.175113 C4.30956481,37.17466 4.44714528,37.1822742 4.58393717,37.1979376 C4.60731507,37.1953227 4.63090796,37.1953227 4.65428587,37.1979376 L4.74724664,37.1979376 L4.87035686,37.21314 L5.01859162,37.243545 C5.18085021,37.2774126 5.34106829,37.3205557 5.49847023,37.3727661 C5.5683589,37.3936459 5.63712523,37.4181718 5.70449142,37.4462447 C5.90956666,37.5253192 6.10717198,37.622839 6.29491798,37.7376256 C6.34821142,37.7640911 6.39944404,37.794583 6.44817764,37.8288405 L6.52857615,37.8820492 L6.66173619,37.9757978 C6.72454752,38.0214053 6.78987131,38.0720802 6.8551951,38.1278226 L6.96825551,38.224105 C6.99928022,38.2500856 7.02865037,38.278012 7.05619138,38.3077187 C7.09639064,38.3457249 7.13910235,38.3862648 7.17678915,38.4293385 L7.21447595,38.4673447 C7.25970011,38.5154859 7.29989937,38.5585596 7.33758617,38.6041671 C7.36860819,38.6356795 7.39716777,38.6695638 7.42300959,38.7055169 C7.45315903,38.7435231 7.49084583,38.7891306 7.52350773,38.8372718 C7.62844376,38.9759843 7.72412761,39.1215729 7.80992742,39.2730762 C8.23343462,40.0115238 8.42280452,40.8629532 8.35261737,41.7130744 C8.35049221,41.7733518 8.34461827,41.8334353 8.3350302,41.8929705 C8.3350302,41.9259092 8.3350302,41.9563141 8.3350302,41.9867191 C8.3350302,42.0171241 8.31995548,42.0906027 8.30990566,42.1412777 C8.27181488,42.3538828 8.2172102,42.5631392 8.14659619,42.7671131 C8.12649656,42.8279231 8.09885957,42.898868 8.07373504,42.9672791 C8.06941613,42.9814212 8.06351578,42.9950221 8.05614786,43.0078191 L8.03604823,43.0508928 L7.99836143,43.1395739 C7.94454096,43.2618847 7.88415256,43.3811477 7.81746478,43.4968322 C7.44132766,44.1244895 6.91529382,44.6471416 6.28738062,45.0170803 C5.64718318,45.3981617 4.9178052,45.6002001 4.17440725,45.6023759 Z M4.17440725,38.434406 C3.66375091,38.4359701 3.16264438,38.5741117 2.72220915,38.834738 C1.79941279,39.3515872 1.22476936,40.3301752 1.21892989,41.3946691 C1.21317889,42.4591631 1.77713289,43.444055 2.6942462,43.9710914 C3.61135952,44.4981279 4.73903899,44.4853649 5.64419253,43.9377042 C6.08835644,43.6771737 6.45999125,43.3076189 6.72454752,42.8633955 C6.76919593,42.7872476 6.80946177,42.7085714 6.84514529,42.6277571 L6.87278228,42.5669471 C6.87278228,42.5441434 6.89036945,42.5238734 6.90041927,42.5010697 L6.94815588,42.3693149 C6.99866549,42.2258217 7.03732152,42.0783619 7.06372874,41.9284429 C7.06372874,41.9005717 7.06372874,41.8727005 7.07880346,41.8397618 C7.07771163,41.8254251 7.07771163,41.8110248 7.07880346,41.7966881 L7.07880346,41.7713506 C7.0775911,41.7570187 7.0775911,41.7426088 7.07880346,41.7282769 C7.08127785,41.7021542 7.08127785,41.6758534 7.07880346,41.6497308 C7.08003185,41.6430308 7.08003185,41.6361608 7.07880346,41.6294608 C7.12731025,41.0334409 6.99406331,40.4367043 6.69691054,39.9191817 C6.63799973,39.8115879 6.57167558,39.7082951 6.49842671,39.6100646 C6.49185662,39.6046307 6.48668511,39.5976768 6.48335199,39.5897946 C6.46325236,39.5619234 6.44064028,39.5365859 6.42054065,39.5112484 L6.39541612,39.4783097 C6.38576086,39.4702808 6.37729957,39.4608945 6.37029159,39.4504385 L6.27481835,39.3440211 L6.25220627,39.3237512 L6.17934512,39.2502725 L6.13412096,39.2071988 C6.09140925,39.1666589 6.06125981,39.1413214 6.03362282,39.1185177 L6.00598583,39.0957139 C5.97332394,39.065309 5.93814959,39.0399715 5.90548769,39.014634 L5.81755182,38.9563579 L5.77735257,38.9284867 L5.81001446,38.9462229 C5.78483656,38.9325178 5.76050496,38.9172875 5.73715331,38.9006154 L5.69695406,38.875278 L5.64419253,38.8474068 C5.51304291,38.7654018 5.37418428,38.6966569 5.22963771,38.6421733 C5.18805929,38.6232112 5.14524852,38.6071267 5.10150258,38.5940321 C4.98799283,38.5554834 4.87219141,38.5241719 4.75478401,38.5002834 L4.64674851,38.4774797 L4.60152434,38.4774797 L4.59398698,38.4774797 L4.48092658,38.4622772 L4.4256526,38.4622772 C4.34165452,38.4481757 4.25693364,38.4388705 4.1718948,38.434406 L4.17440725,38.434406 Z" id="Shape"></path>
            <path d="M25.4724753,58 C23.1641003,57.9986013 21.2931387,56.1117832 21.2917105,53.7838445 C21.2883475,53.0398768 21.4911016,52.3097435 21.8771544,51.6757671 C21.9421673,51.5571282 22.0134563,51.4420991 22.0907129,51.3311775 C22.2919135,51.0457101 22.6844909,50.9787807 22.9675592,51.1816864 C23.2506275,51.3845922 23.3169945,51.7804967 23.115794,52.0659641 C23.060938,52.1475464 23.0106116,52.2321346 22.9650467,52.3193388 L22.949972,52.34721 C22.6829872,52.7814179 22.5435958,53.2830869 22.5479795,53.7939794 C22.5479794,54.8476563 23.1053852,55.8212936 24.0102274,56.3481321 C24.9150695,56.8749705 26.0298812,56.8749705 26.9347232,56.3481321 C27.8395655,55.8212936 28.3969711,54.8476563 28.3969711,53.7939794 C28.4013549,53.2830869 28.2619634,52.7814179 27.9949786,52.34721 L27.9849288,52.2990688 C27.9393639,52.2118646 27.8890375,52.1272765 27.8341816,52.0456941 C27.7040277,51.8610291 27.6814503,51.6203669 27.7749537,51.4143624 C27.8684575,51.2083582 28.0638366,51.0683086 28.2874942,51.0469691 C28.5111518,51.0256299 28.7291087,51.1262425 28.8592626,51.3109075 C28.9365193,51.4218291 29.0078081,51.5368582 29.0728211,51.6554971 C29.4588739,52.2894735 29.6616279,53.0196069 29.658265,53.7635745 C29.662902,54.8859493 29.2238912,55.9639367 28.4383306,56.759008 C27.6527704,57.554079 26.5854274,58.0006833 25.4724753,58 Z" id="Shape"></path>
            <path d="M24.1358501,51.0930053 C23.8340275,51.0984848 23.571026,50.8866625 23.5095807,50.588606 C23.4481354,50.2905492 23.6056266,49.9905655 23.8846047,49.8742731 L24.0604765,49.8083956 C24.3845947,49.7130599 24.725463,49.8931725 24.8322288,50.2161847 C24.9389947,50.5391966 24.7734594,50.8895411 24.4574441,51.0093916 L24.3669958,51.0448641 C24.2936029,51.0753225 24.2152031,51.091651 24.1358501,51.0930053 Z" id="Shape"></path>
            <path d="M26.8091005,51.0930053 C26.7229829,51.0942894 26.6375048,51.0779108 26.5578552,51.0448641 L26.4674069,51.0093916 C26.1513917,50.8895411 25.9858562,50.5391966 26.0926222,50.2161847 C26.1993879,49.8931725 26.5402562,49.7130599 26.8643745,49.8083956 L27.0402463,49.8742731 C27.3192243,49.9905655 27.4767155,50.2905492 27.4152704,50.588606 C27.3538251,50.8866625 27.0908235,51.0984848 26.7890009,51.0930053 L26.8091005,51.0930053 Z" id="Shape"></path>
            <path d="M46.7554686,45.5998421 C46.023547,45.6004522 45.3046574,45.4045584 44.6726447,45.0322828 C44.0434844,44.6631139 43.5164631,44.1403391 43.1400481,43.5120347 C43.070215,43.3907529 43.0073014,43.2655513 42.9516141,43.1370402 L42.9516141,43.1066352 C42.9315145,43.058494 42.9089024,43.0103528 42.8913152,42.9622116 C42.873728,42.9140705 42.8636782,42.8938005 42.8511159,42.8532605 C42.8385537,42.8127206 42.8159416,42.7595119 42.8008669,42.708837 C42.7857922,42.658162 42.7556427,42.5694809 42.7355431,42.4934685 C42.7154435,42.4174561 42.7154435,42.4174561 42.7079061,42.3819836 C42.7003687,42.3465112 42.6827816,42.2755662 42.6727317,42.2223576 L42.6727317,42.1615476 C42.6727317,42.108339 42.6526321,42.0449953 42.6425823,41.9791179 L42.6425823,41.9031055 C42.6425823,41.8397618 42.6275076,41.7789519 42.6224827,41.7130744 C42.5921945,41.3334746 42.6141778,40.9514737 42.6878065,40.5779559 C42.7212595,40.3966746 42.7674374,40.2180181 42.8259914,40.0433353 C42.8852145,39.8699226 42.9557162,39.7006387 43.0370375,39.5365859 C43.0747243,39.4529723 43.1199485,39.3668249 43.1676851,39.2832112 C43.2554195,39.1287532 43.3536393,38.980598 43.4616421,38.8398055 C43.5043538,38.7815293 43.5596278,38.7131182 43.6149018,38.6472408 C43.6701758,38.5813633 43.7254498,38.5205534 43.7832362,38.4622772 C43.8410226,38.4040011 43.9063464,38.3406574 43.9691577,38.2823812 C44.0319691,38.224105 44.0822181,38.1810313 44.1400046,38.1354239 C44.197791,38.0898164 44.2405027,38.054344 44.3008016,38.0062028 C44.341941,37.9743957 44.3847118,37.9447944 44.4289367,37.9175217 L44.5570718,37.8313743 C44.6905178,37.74691 44.8289613,37.6707555 44.9716267,37.603337 C45.0529108,37.5622156 45.1368491,37.5266628 45.222872,37.4969197 C45.2907083,37.4690485 45.3761317,37.4361098 45.4741174,37.4057048 C45.572103,37.3752998 45.6298895,37.3550299 45.7128004,37.3322261 C45.7957114,37.3094224 45.8484729,37.2967537 45.9213341,37.2815512 L45.9439462,37.2815512 L46.0972058,37.2511462 C46.1445296,37.2416974 46.1923411,37.23493 46.2404157,37.2308763 L46.3409138,37.2156738 L46.4012127,37.2156738 C46.5388514,37.2000819 46.6772637,37.1924682 46.8157675,37.1928549 C47.5493316,37.1908669 48.2698138,37.3887089 48.9011039,37.7654968 C50.5285062,38.7263324 51.3166181,40.6669524 50.8250581,42.5029753 C50.3334978,44.3389982 48.6839623,45.6158754 46.7981803,45.6201121 L46.7554686,45.5998421 Z M44.11488,42.6556283 C44.1459799,42.7277334 44.1812138,42.7979524 44.2204031,42.8659293 C44.4868767,43.3103652 44.8601788,43.6798592 45.305783,43.9402379 C46.7077885,44.7490532 48.494343,44.263241 49.3030964,42.8532605 C50.1008097,41.4435565 49.6191116,39.6487724 48.2252539,38.8372718 C47.7848505,38.5743796 47.2823148,38.4360831 46.7705434,38.4369358 C46.6700452,38.4369358 46.5795969,38.4369358 46.4991984,38.4496085 L46.4514618,38.4496085 L46.3484512,38.464811 L46.3258391,38.464811 L46.1549923,38.4977497 C46.1024589,38.5077276 46.0504667,38.520413 45.9992201,38.5357559 C45.9447132,38.5485404 45.8910176,38.5646163 45.8384231,38.5838971 C45.7705869,38.6067008 45.710288,38.6295045 45.6525016,38.654842 C45.6076078,38.671044 45.5639431,38.6905209 45.521854,38.7131182 L45.4967294,38.7131182 C45.3966514,38.7616341 45.2993503,38.8157724 45.2052848,38.875278 L45.1273988,38.9259529 C45.1101862,38.9403276 45.0916815,38.9530516 45.0721248,38.9639591 L45.0419754,38.9842291 C44.9992637,39.0171678 44.9565519,39.0501065 44.9163527,39.085579 C44.8761534,39.1210514 44.8259044,39.1615914 44.7882176,39.1945301 C44.7505308,39.2274688 44.7178689,39.2578737 44.6826945,39.2958799 L44.6625949,39.3186837 C44.6263095,39.3539646 44.5919233,39.3911795 44.5595843,39.4301685 L44.5369722,39.455506 C44.5043103,39.4935122 44.4716484,39.5340521 44.441499,39.5771258 C44.3665588,39.673451 44.2985489,39.7750604 44.2379903,39.8811755 C44.2053284,39.9394516 44.1751789,40.0002616 44.1450295,40.0610715 C44.088251,40.1812463 44.0387487,40.304782 43.9967947,40.4309985 C43.955737,40.5536109 43.9229994,40.6788983 43.898809,40.8059931 C43.8482351,41.0704983 43.8338639,41.3407479 43.8560973,41.6091908 C43.8537685,41.641242 43.8537685,41.6734221 43.8560973,41.7054732 C43.8573387,41.7147214 43.8573387,41.7240962 43.8560973,41.7333444 L43.8560973,41.8068231 C43.8560973,41.8346943 43.8560973,41.8828355 43.876197,41.9284429 C43.8776198,41.94615 43.8776198,41.9639445 43.876197,41.9816516 C43.876197,41.9816516 43.876197,42.0044553 43.876197,42.0221916 C43.876197,42.0399278 43.876197,42.0703327 43.8912717,42.0855352 C43.9063464,42.1007377 43.8912717,42.1210077 43.8912717,42.1362102 C43.8912717,42.1514126 43.8912717,42.1640814 43.8912717,42.1666151 C43.9020092,42.212145 43.9154327,42.2569875 43.9314709,42.3009037 L43.9591079,42.3870511 C43.9643863,42.3975753 43.9685952,42.408611 43.9716702,42.4199898 L43.9867449,42.4630635 C44.009357,42.5162722 44.0269442,42.5593459 44.0470438,42.5998858 L44.11488,42.6556283 Z" id="Shape"></path>
            <path d="M28.6507289,52.506836 C28.3213674,52.503738 28.0144162,52.3380753 27.8291567,52.0634303 L27.8115695,52.0355591 C27.7939823,52.0102217 27.7738827,51.9823504 27.7512706,51.9544792 C27.743232,51.9472079 27.7364406,51.9386469 27.731171,51.9291418 L27.7186087,51.9291418 C27.6944032,51.8926464 27.666627,51.858693 27.6356977,51.8277919 C27.522159,51.6948475 27.3959285,51.5734878 27.2588297,51.4654661 C27.1719815,51.3958527 27.0804787,51.3323587 26.9849723,51.2754351 L26.9573353,51.2576988 L26.8995489,51.2222264 L26.8442749,51.1918214 L26.7965383,51.1690177 C26.7755442,51.1565296 26.7537173,51.1455238 26.7312145,51.136079 C26.7043076,51.1254821 26.6782658,51.1127743 26.6533284,51.0980728 L26.5854922,51.0676678 L26.4849941,51.0296616 L26.4498197,51.0296616 L26.351834,50.9967229 L26.3267095,50.9967229 L26.2211864,50.966318 L26.1759623,50.966318 L26.1307381,50.966318 C26.1078655,50.9588388 26.0842926,50.9537447 26.0603894,50.9511155 L26.0352649,50.9511155 C26.0022113,50.9476683 25.9694584,50.9417398 25.9372792,50.9333792 L25.8744679,50.9333792 L25.8242188,50.9333792 L25.6810089,50.9333792 C25.5538605,50.9245871 25.4262645,50.9245871 25.299116,50.9333792 L25.1358065,50.9485817 L25.0805326,50.9485817 C25.0613593,50.9459416 25.0419194,50.9459416 25.0227461,50.9485817 C24.9956046,50.9560912 24.9678607,50.9611785 24.9398352,50.9637842 L24.8996359,50.9637842 C24.8757327,50.9664135 24.8521599,50.9715076 24.8292872,50.9789867 L24.7840631,50.9789867 L24.7463763,50.9789867 L24.6333158,51.0119254 L24.6081913,51.0119254 L24.5102056,51.0448641 L24.4750313,51.0448641 L24.384583,51.0803366 L24.2941346,51.1208765 L24.2288108,51.1512815 C24.2063079,51.1607263 24.1844811,51.1717321 24.163487,51.1842202 L24.1157504,51.2070239 C24.1026216,51.2165711 24.0882487,51.2242448 24.0730387,51.2298276 L24.00269,51.2729013 L23.975053,51.2906375 C23.8805737,51.3469863 23.7899243,51.4096243 23.7037081,51.4781348 C23.572544,51.5811638 23.4514001,51.6965471 23.3419148,51.8227244 C23.3105347,51.8546243 23.2811654,51.8884739 23.2539789,51.9240743 C23.2472224,51.936218 23.23876,51.9473123 23.2288544,51.957013 C23.2235846,51.9665181 23.2167932,51.9750791 23.2087547,51.9823504 L23.1484558,52.0634303 C23.1440664,52.0728242 23.1381185,52.0813931 23.1308687,52.0887678 C22.8359735,52.5227682 22.2608182,52.6570447 21.8068057,52.3978849 L7.24462539,43.909833 C6.80582851,43.6433996 6.63592151,43.0867947 6.8501702,42.6176221 L6.87278228,42.5669471 L6.89790681,42.5061372 L6.89790681,42.488401 C6.91298153,42.447861 6.92805626,42.4098548 6.94061852,42.3693149 C6.99112813,42.2258217 7.02978416,42.0783619 7.05619138,41.9284429 C7.05619138,41.9005717 7.05619138,41.8727005 7.0712661,41.8397618 C7.07017427,41.8254251 7.07017427,41.8110248 7.0712661,41.7966881 L7.0712661,41.7713506 C7.07005374,41.7570187 7.07005374,41.7426088 7.0712661,41.7282769 C7.07374049,41.7021542 7.07374049,41.6758534 7.0712661,41.6497308 C7.12405901,41.0472767 6.9915955,40.4430427 6.69188563,39.9191817 C6.63297483,39.8115879 6.56665068,39.7082951 6.49340181,39.6100646 L6.46325236,39.5695246 L6.42054065,39.5137822 L6.39039121,39.4783097 C6.38073595,39.4702808 6.37227466,39.4608945 6.36526668,39.4504385 C6.33511724,39.4174998 6.30748025,39.3820273 6.27481835,39.3516224 L6.24969382,39.3288187 C6.23241186,39.3067251 6.21306041,39.2863612 6.19190739,39.2680087 C6.17057231,39.2499266 6.1504299,39.2304599 6.13160851,39.2097326 C6.12299614,39.204304 6.11535188,39.1974515 6.10899642,39.1894626 L6.04618509,39.1362539 L6.00347338,39.1007814 C5.97081148,39.0703765 5.93563714,39.045039 5.90297524,39.0197015 L5.81503937,38.9614254 L5.77484011,38.9335541 L5.80750201,38.9512904 C5.78232411,38.9375853 5.7579925,38.922355 5.73464086,38.9056829 L5.68690424,38.875278 L5.64168008,38.8524742 C5.51053046,38.7704693 5.37167183,38.7017244 5.22712526,38.6472408 C5.18286203,38.6278396 5.1375687,38.6109223 5.09145277,38.5965658 C4.98037929,38.5590907 4.86709969,38.5286267 4.75227155,38.5053509 L4.64423605,38.4825472 L4.59901189,38.4825472 L4.52615074,38.4825472 L4.49851375,38.4825472 L4.44826468,38.4825472 L4.43067751,38.4825472 C3.91652242,38.4416247 3.51967613,38.0094424 3.5186569,37.4893184 L3.5186569,20.518282 C3.52098114,19.9991327 3.91748135,19.5684289 4.43067751,19.527587 L4.47841412,19.527587 L4.54122546,19.527587 C4.59649944,19.527587 4.64926096,19.5123845 4.70202248,19.5022495 L4.75478401,19.5022495 L4.81508289,19.487047 C4.83317042,19.4808065 4.8516321,19.4757288 4.87035686,19.4718446 C4.9383975,19.4562797 5.00550473,19.4368229 5.07135314,19.4135684 C5.12265837,19.399036 5.17300678,19.3812647 5.22210035,19.3603597 L5.24973734,19.3603597 L5.27988678,19.347691 C5.32789416,19.3291747 5.3748632,19.3080286 5.42058417,19.2843473 C5.49588436,19.2503383 5.56890101,19.2114046 5.63916763,19.1677949 L5.68690424,19.1424575 L5.73715331,19.1095188 L5.78991483,19.0740463 L5.9105126,18.9929664 L6.00598583,18.9194878 L6.05372245,18.8789478 C6.07300824,18.8649021 6.09070199,18.8487578 6.10648397,18.8308066 L6.14919568,18.7928004 L6.1642704,18.7928004 C6.1969323,18.7623954 6.22959419,18.7319905 6.25974363,18.6990518 L6.27984326,18.6762481 C6.31343871,18.6449967 6.34452313,18.6111071 6.37280404,18.5748982 L6.39541612,18.5495607 C6.42807802,18.5115545 6.46073991,18.4710146 6.49088935,18.4279409 C6.56582961,18.3316157 6.63383951,18.2300064 6.69439808,18.1238912 C6.72705998,18.0656151 6.75720942,18.0048051 6.78735886,17.9439952 C6.84413737,17.8238203 6.89363976,17.7002847 6.93559362,17.5740682 C6.9766513,17.4514559 7.0093888,17.3261683 7.0335793,17.1990736 C7.08415333,16.9345684 7.09852444,16.6643187 7.07629101,16.3958759 C7.07868548,16.3655189 7.07868548,16.335018 7.07629101,16.304661 C7.07629101,16.304661 7.07629101,16.2818573 7.07629101,16.2717223 L7.07629101,16.1982436 C7.07629101,16.1703724 7.07629101,16.1222312 7.05619138,16.0766238 L7.03609175,15.9803414 C7.0298863,15.9603878 7.02485265,15.9400826 7.02101703,15.9195315 L7.02101703,15.884059 C7.02101703,15.884059 7.02101703,15.8485866 7.00594231,15.8384516 C6.99520487,15.7929217 6.98178123,15.7480791 6.96574306,15.704163 C6.96460502,15.6881365 6.96460502,15.6720483 6.96574306,15.6560218 C6.96574306,15.6332181 6.94564343,15.6078806 6.93810607,15.5850769 L6.92303135,15.5420032 L6.88031964,15.4583896 C6.88031964,15.4330521 6.86022001,15.4077146 6.84765774,15.3823771 C6.83420906,15.3573548 6.82326765,15.3310426 6.81499585,15.303831 C6.63846637,14.8449549 6.81437578,14.3245095 7.23206312,14.0698963 L21.7892185,5.60464804 C22.24018,5.34112831 22.8165793,5.47646548 23.1057441,5.91376516 L23.1233313,5.94163637 L23.1836302,6.02271627 C23.1916687,6.02998749 23.1984601,6.03854872 23.2037298,6.04805374 C23.2279353,6.08454909 23.2557114,6.11850252 23.2866408,6.14940361 C23.4001796,6.28234809 23.52641,6.40370763 23.6635088,6.51172941 C23.7503572,6.58134274 23.8418598,6.64483686 23.9373662,6.70176043 L23.9650032,6.71949665 L24.0227897,6.75496911 L24.0780636,6.78284033 L24.1258002,6.80817779 C24.1467943,6.82066585 24.1686211,6.83167176 24.191124,6.8411165 C24.2207984,6.85291479 24.2493835,6.86732849 24.2765475,6.8841902 L24.3368463,6.90952767 L24.4373445,6.94753387 L24.4725188,6.94753387 L24.5705045,6.98047258 L24.595629,6.98047258 C24.6301012,6.99293963 24.6653523,7.00309674 24.7011521,7.01087754 L24.7463763,7.01087754 L24.7916004,7.01087754 C24.8144731,7.01835658 24.8380459,7.02345073 24.8619491,7.02608002 L24.8870736,7.02608002 C24.9201274,7.02952721 24.9528801,7.03545572 24.9850593,7.04381625 L25.0478707,7.04381625 L25.0981197,7.04381625 L25.2413296,7.04381625 C25.3684781,7.05260838 25.496074,7.05260838 25.6232225,7.04381625 L25.786532,7.02861377 L25.841806,7.02861377 C25.8609792,7.03125406 25.8804191,7.03125406 25.8995924,7.02861377 C25.9267339,7.02110415 25.9544777,7.01601705 25.9825034,7.01341129 L26.0227026,7.01341129 C26.0466058,7.010782 26.0701787,7.00568785 26.0930513,6.99820881 L26.1382755,6.99820881 L26.1759623,6.99820881 C26.2144553,6.99141419 26.2522861,6.98124051 26.2890227,6.96780385 L26.3141472,6.96780385 L26.4121329,6.93486514 L26.4473072,6.93486514 L26.5377556,6.89939268 L26.6307164,6.85885273 L26.6935277,6.82844777 L26.7588515,6.79550906 L26.8065881,6.77270534 L26.8492998,6.74736787 C26.8740281,6.73624786 26.8975944,6.72266726 26.9196485,6.70682792 L26.9472855,6.68909169 C27.0417648,6.63274296 27.1324141,6.57010499 27.2186305,6.50159443 C27.3590319,6.4089204 27.4902822,6.3028606 27.6105732,6.18487607 C27.6419532,6.15297609 27.6713226,6.11912663 27.6985091,6.08352619 C27.7052656,6.07138258 27.713728,6.06028819 27.7236336,6.05058749 C27.7289032,6.04108246 27.7356946,6.03252124 27.7437332,6.02525002 L27.8040321,5.94417012 C27.8084216,5.93477625 27.8143694,5.92620727 27.8216193,5.91883265 C28.1165145,5.48483224 28.6916699,5.3505559 29.1456823,5.60971553 L43.6953003,14.0698963 C44.1340973,14.3363296 44.3040042,14.8929345 44.0897555,15.3621072 L44.0671434,15.4127821 L44.0420189,15.473592 L44.0420189,15.4989295 C44.0420189,15.534402 44.0143819,15.5724082 44.0018196,15.6104144 C43.95131,15.7539075 43.9126539,15.9013673 43.8862468,16.0512863 L43.8711721,16.1399675 C43.872264,16.1543042 43.872264,16.1687044 43.8711721,16.1830412 L43.8711721,16.2083786 C43.8723843,16.2227105 43.8723843,16.2371205 43.8711721,16.2514523 C43.8686978,16.2775749 43.8686978,16.3038759 43.8711721,16.3299985 C43.8183791,16.9324525 43.9508427,17.5366866 44.2505525,18.0605476 C44.3094633,18.1681414 44.3757875,18.2714341 44.4490363,18.3696647 L44.4741609,18.4000696 C44.4853109,18.4171914 44.4979212,18.4332996 44.5118477,18.4482108 C44.5291223,18.4673542 44.5450721,18.487672 44.5595843,18.5090208 C44.5667207,18.5145353 44.5726991,18.5214255 44.5771715,18.5292907 C44.6073209,18.5647632 44.6349579,18.5951682 44.6676198,18.6281069 L44.6902319,18.6483768 C44.7075138,18.6704704 44.7268652,18.6908344 44.7480183,18.7091868 C44.7693533,18.7272689 44.7894959,18.7467356 44.8083172,18.7674629 C44.8169296,18.7728914 44.8245738,18.7797439 44.8309293,18.7877329 L44.8937406,18.8409416 L44.9364523,18.8764141 C44.9691142,18.906819 45.0042886,18.9321565 45.0369505,18.957494 L45.1248863,19.0157701 L45.1650856,19.0436413 L45.1324237,19.0259051 C45.1576015,19.03961 45.1819331,19.0548404 45.2052848,19.0715126 L45.2530215,19.0993838 L45.305783,19.1297887 C45.3645056,19.1693143 45.4267478,19.2032438 45.4917045,19.2311386 C45.6106813,19.2914802 45.7341706,19.3423112 45.8610352,19.3831634 C45.9168639,19.4036828 45.9739275,19.4206085 46.031882,19.4338384 L46.0695688,19.4338384 C46.1116132,19.4466464 46.1544076,19.456801 46.197704,19.4642433 L46.2379032,19.4642433 C46.2906647,19.4642433 46.3434263,19.4845133 46.3987002,19.4895808 L46.4615116,19.4895808 L46.491661,19.4895808 L46.5092482,19.4895808 C47.0224445,19.5304227 47.4189445,19.9611265 47.4212688,20.4802758 L47.4212688,37.4183735 C47.4202495,37.9384975 47.0234032,38.3706797 46.5092482,38.4116023 L46.4414119,38.4116023 L46.413775,38.4116023 L46.3384014,38.4116023 L46.3007146,38.4116023 L46.197704,38.4293385 L46.1600172,38.4293385 L46.031882,38.4622772 L46.004245,38.4622772 C45.9531422,38.4744461 45.902804,38.4896756 45.8534978,38.5078847 C45.7856616,38.5306884 45.7253627,38.5534921 45.6675763,38.5788296 C45.6195688,38.597346 45.5725998,38.6184918 45.5268789,38.6421733 C45.4211983,38.6911136 45.3188063,38.7469754 45.2203596,38.8094005 L45.1625731,38.844873 C45.1485584,38.8572618 45.1334169,38.8682901 45.117349,38.8778117 L45.0444878,38.9284867 C45.005235,38.9568633 44.9674957,38.9873106 44.9314274,39.0197015 L44.8987655,39.045039 C44.8702155,39.0665903 44.843338,39.0903077 44.818367,39.1159839 L44.7831927,39.1438551 C44.7528666,39.1706409 44.7243299,39.1994194 44.6977692,39.2300025 L44.6676198,39.2629412 C44.6340243,39.2941925 44.60294,39.3280821 44.574659,39.3642911 L44.5520469,39.3896286 C44.519385,39.4276348 44.4867232,39.4681747 44.4565737,39.5112484 C44.3816335,39.6075736 44.3136236,39.709183 44.253065,39.8152981 C44.2204031,39.8735742 44.1902536,39.9343842 44.1601042,39.9951941 C44.1033258,40.1153689 44.0538234,40.2389045 44.0118694,40.3651211 C43.9708117,40.4877334 43.9380742,40.6130209 43.9138838,40.7401157 C43.8633098,41.0046208 43.8489386,41.2748705 43.8711721,41.5433134 C43.8687777,41.5736705 43.8687777,41.6041712 43.8711721,41.6345283 C43.8711721,41.6345283 43.8711721,41.657332 43.8711721,41.667467 L43.8711721,41.7409457 C43.8711721,41.7688169 43.8711721,41.8169581 43.8912717,41.8625655 C43.8926945,41.8802726 43.8926945,41.8980671 43.8912717,41.9157742 C43.8912717,41.9335104 43.8912717,41.9613816 43.9088589,41.9892529 L43.9088589,42.0196578 L43.9088589,42.0551303 C43.9088589,42.0551303 43.9088589,42.0906027 43.9239336,42.1007377 C43.934671,42.1462676 43.9480946,42.1911101 43.9641328,42.2350263 C43.965271,42.2510528 43.965271,42.267141 43.9641328,42.2831675 C43.9641328,42.3059712 43.9842325,42.3313087 43.9917698,42.3541124 L44.0068445,42.3971861 L44.0219193,42.4351923 C44.0219193,42.4605298 44.0420189,42.4858672 44.0545812,42.5112047 C44.0680298,42.536227 44.0789713,42.5625392 44.087243,42.5897509 C44.2637726,43.0486269 44.0878631,43.5690724 43.6701758,43.8236856 L29.1130204,52.2889338 C28.9806465,52.4013668 28.8211688,52.476537 28.6507289,52.506836 Z M28.700978,51.125944 L28.728615,51.1588827 L42.8661907,42.9242054 L42.8435786,42.8608618 C42.8213105,42.8062225 42.8020196,42.7503967 42.7857922,42.6936345 C42.7656925,42.6302908 42.7455929,42.5694809 42.7305182,42.5061372 C42.7153035,42.4578825 42.7027222,42.4088231 42.6928314,42.3591799 C42.6928314,42.3110387 42.6702193,42.2628975 42.6601695,42.2147563 L42.6601695,42.1539464 C42.6601695,42.1007377 42.6400699,42.037394 42.63002,41.9715166 L42.63002,41.898038 C42.63002,41.837228 42.6149453,41.7713506 42.6099204,41.7054732 C42.5796323,41.3258733 42.6016155,40.9438725 42.6752442,40.5703546 C42.7086973,40.3890734 42.7548752,40.2104169 42.8134291,40.035734 C42.8726522,39.8623214 42.9431539,39.6930374 43.0244752,39.5289847 C43.062162,39.445371 43.1073862,39.3592236 43.1551228,39.27561 C43.2428572,39.121152 43.341077,38.9729967 43.4490799,38.8322043 C43.4917916,38.7739281 43.5445531,38.7055169 43.6023395,38.6396395 C43.6562631,38.5736182 43.7141585,38.5110012 43.7756988,38.4521422 C43.8331875,38.3868501 43.8953265,38.3258783 43.9616204,38.2697125 C44.0168944,38.2190375 44.0696559,38.1708963 44.1249299,38.1278226 L44.2882393,37.9986016 L44.3234137,37.9732641 L44.3962748,37.9251229 C44.4407528,37.8915624 44.4868724,37.8602734 44.5344598,37.8313743 C44.6746838,37.7413756 44.8207335,37.66096 44.9716267,37.5906683 C45.0319256,37.5602634 45.1047867,37.5273246 45.1776479,37.4969197 C45.250509,37.4665147 45.3510071,37.4285085 45.4414555,37.3981036 C45.5319038,37.3676986 45.5871778,37.3499624 45.6675763,37.3271586 C45.7479748,37.3043549 45.8283733,37.2840849 45.9188216,37.2688825 L46.114793,37.2308763 L46.1750919,37.2308763 L46.1750919,20.758988 C46.1273553,20.758988 46.0771062,20.7437855 46.031882,20.7361842 L45.9916828,20.7361842 C45.9012345,20.718448 45.815811,20.698178 45.7278752,20.6728406 C45.6428507,20.6520092 45.558984,20.626636 45.4766298,20.5968282 C45.3040109,20.5419364 45.1359861,20.4733096 44.9741391,20.3915947 C44.8697293,20.3452873 44.7689435,20.2910793 44.6726447,20.2294349 C44.6232893,20.2035486 44.5754718,20.174784 44.5294349,20.1432875 L44.4490363,20.0900788 L44.3158763,19.9963302 C44.2513726,19.9506898 44.1893117,19.9016353 44.1299548,19.8493728 C44.0807903,19.8115768 44.0338142,19.7709703 43.9892574,19.727753 L43.926446,19.6694768 C43.8812219,19.6289369 43.8410226,19.5858632 43.7983109,19.5427895 L43.7731864,19.517452 C43.72626,19.4699834 43.6818132,19.4200856 43.6400263,19.3679609 C43.6128644,19.3402255 43.5876774,19.3105915 43.5646527,19.2792798 C43.5345033,19.2438073 43.5068663,19.2058011 43.4767169,19.1677949 L43.4591297,19.1449912 C43.3528212,19.0026436 43.2554815,18.853704 43.1676851,18.6990518 C42.7438282,17.9570397 42.554506,17.1022892 42.6249951,16.2489186 C42.6280141,16.1920686 42.6338839,16.1354091 42.6425823,16.0791575 C42.6425823,16.0462188 42.6425823,16.0158139 42.6425823,15.9854089 L42.6651944,15.8384516 C42.7043663,15.6233497 42.7598021,15.411586 42.8310163,15.2050149 C42.846091,15.1594074 42.8661907,15.1087325 42.8862903,15.0555238 L28.7235901,6.82338028 L28.6959531,6.85631898 C28.6484858,6.92093386 28.5973119,6.98269381 28.5426934,7.0412825 C28.2782931,7.33843996 27.9718158,7.59457929 27.6331853,7.80140656 C27.5739173,7.84148481 27.5117715,7.87705565 27.4472637,7.90782393 L27.3894773,7.94076264 L27.2286803,8.01930879 L27.2110931,8.01930879 C27.1407444,8.0522475 27.0879829,8.07505122 27.0402463,8.09278745 C26.9925097,8.11052368 26.944773,8.1333274 26.8920115,8.15106363 C26.83925,8.16879985 26.7663888,8.19667107 26.7035775,8.2144073 C26.6407662,8.23214353 26.5729299,8.25494725 26.5050937,8.27014973 L26.434745,8.28535221 C26.3737306,8.30300589 26.3116197,8.31654907 26.2488234,8.32589216 L26.1834996,8.32589216 C26.1130964,8.34152748 26.0417598,8.35253025 25.9699411,8.35883087 C25.8895426,8.35883087 25.8016067,8.37910084 25.7186957,8.38163459 C25.5513734,8.39253675 25.3835274,8.39253675 25.2162051,8.38163459 C25.1388398,8.37926746 25.0616686,8.37250005 24.9850593,8.36136462 C24.9124344,8.35486115 24.8402746,8.34386083 24.7689883,8.32842591 L24.6860774,8.32842591 C24.6292926,8.31900787 24.5730891,8.30631836 24.517743,8.2904197 L24.4423694,8.27268348 C24.3820705,8.26001474 24.3167467,8.23974477 24.2514229,8.21947479 C24.1860991,8.19920482 24.1232878,8.17893484 24.0629889,8.15613112 L23.9047043,8.0953212 L23.7640069,8.03451127 L23.7263201,8.0142413 C23.6721161,7.99112552 23.6192682,7.96490058 23.5680356,7.93569514 L23.5052242,7.90275643 C23.4414853,7.87205475 23.3801699,7.83647841 23.3218151,7.79633907 C23.1847081,7.71272694 23.052962,7.62048467 22.9273599,7.52016066 C22.7344054,7.36851317 22.5560685,7.19884492 22.3947198,7.01341129 C22.3461921,6.96136884 22.3008825,6.90636728 22.2590473,6.84871774 L22.2314103,6.81577903 L8.07875994,15.0529901 L8.10137202,15.1163337 C8.1236402,15.1709731 8.14293112,15.2267987 8.15915845,15.283561 C8.17925808,15.3469047 8.19935771,15.4077146 8.21443243,15.4710583 C8.22849928,15.5151637 8.2402405,15.5599893 8.24960678,15.6053469 L8.27221886,15.6990955 L8.27221886,15.7269667 C8.27221886,15.7447029 8.27221886,15.7624392 8.27221886,15.7801754 L8.27221886,15.8232491 C8.27221886,15.8764578 8.29231849,15.9398015 8.3023683,16.0056789 L8.3023683,16.0791575 C8.3023683,16.1399675 8.31744302,16.2058449 8.32246793,16.2717223 C8.35275613,16.6513221 8.33077274,17.0333231 8.25714414,17.4068409 C8.22369105,17.5881222 8.17751321,17.7667785 8.1189592,17.9414615 C8.05973612,18.1148741 7.98923437,18.2841581 7.90791311,18.4482108 C7.87022631,18.5318245 7.82500214,18.6179719 7.77726553,18.7015855 C7.68953115,18.8560436 7.59131123,19.0041988 7.48330847,19.1449912 C7.44059676,19.2032674 7.38783524,19.2716786 7.33004881,19.337556 C7.27444849,19.4052743 7.21488068,19.4695774 7.15166461,19.5301207 C7.10141554,19.5833294 7.05116648,19.6340044 6.9958925,19.6821456 C6.98017492,19.7009123 6.96248418,19.7179035 6.94313098,19.7328205 C6.90041927,19.7733604 6.8551951,19.8113666 6.80997094,19.8468391 C6.76474678,19.8823116 6.69188563,19.9431215 6.62907429,19.9861952 C6.57661544,20.0262212 6.52210352,20.0634343 6.46576482,20.09768 C6.45510181,20.1075325 6.44329034,20.1160408 6.43059047,20.1230175 C6.37782895,20.15849 6.32506742,20.1914287 6.26979345,20.2218336 C6.1706857,20.2823466 6.06835862,20.3373272 5.96327412,20.3865272 L5.75474049,20.4802758 L5.65926725,20.518282 C5.59143101,20.5436195 5.51856986,20.5714907 5.45073362,20.5917607 C5.38289737,20.6120307 5.26481206,20.6500369 5.15928901,20.6753743 C5.08601537,20.6975019 5.01129699,20.7144349 4.93568065,20.7260493 L4.90804367,20.7260493 C4.86161016,20.7363291 4.81463547,20.7439426 4.76734627,20.748853 L4.76734627,37.2182075 L4.83769497,37.2182075 L4.98592972,37.2486125 C5.14818832,37.2824801 5.30840639,37.3256232 5.46580834,37.3778336 C5.52359477,37.3955698 5.59896837,37.423441 5.67182952,37.4513122 C5.87858419,37.531234 6.07785765,37.6295953 6.26728099,37.7452269 C6.31830814,37.7719503 6.36779848,37.8015579 6.41551575,37.833908 L6.49591426,37.8871167 L6.62907429,37.9808653 C6.69357797,38.0265057 6.75563878,38.0755603 6.81499585,38.1278226 C6.86416034,38.1656188 6.91113649,38.2062251 6.95569324,38.2494425 L7.01850458,38.3077187 C7.06372874,38.3482586 7.103928,38.3913323 7.14663971,38.434406 L7.17176424,38.4597435 C7.21950086,38.5078847 7.26221257,38.5585596 7.30492428,38.6092345 C7.33033933,38.6353615 7.35385006,38.6633055 7.37527297,38.6928482 C7.40542241,38.7283207 7.43557186,38.7663269 7.46320884,38.8043331 L7.48582093,38.8322043 C7.59212941,38.9745519 7.68946915,39.1234914 7.77726553,39.2781437 C8.20112236,40.0201558 8.39044452,40.8749064 8.31995548,41.7282769 C8.31693644,41.7851269 8.31106654,41.8417862 8.3023683,41.898038 C8.3023683,41.9309767 8.3023683,41.9613816 8.3023683,41.9917866 C8.3023683,42.0221916 8.28729358,42.0956702 8.27724377,42.1463452 C8.23915299,42.3589503 8.1845483,42.5682067 8.11393429,42.7721806 C8.09885957,42.8177881 8.07875994,42.8709968 8.05866032,42.9242054 L22.1987484,51.146214 L22.2263854,51.1132753 C22.2738528,51.0486604 22.3250267,50.9869003 22.3796451,50.9283117 C22.6440454,50.6311542 22.9505228,50.3750149 23.2891532,50.1681877 C23.3484213,50.1281094 23.4105671,50.0925386 23.4750748,50.0617703 L23.5328612,50.0288316 L23.6936582,49.9502855 L23.7162703,49.9376167 C23.7815941,49.9072118 23.8318432,49.884408 23.8820923,49.8666718 C23.9323413,49.8489356 23.9775655,49.8261319 24.030327,49.8083956 C24.0830885,49.7906594 24.1559497,49.7627882 24.218761,49.745052 C24.2815724,49.7273157 24.3519211,49.704512 24.4172448,49.6893095 L24.4850811,49.6741071 C24.5470088,49.6567103 24.609939,49.6431715 24.6735151,49.6335671 L24.7388389,49.6335671 C24.809242,49.6179319 24.8805787,49.6069291 24.9523974,49.6006284 C25.0327959,49.6006284 25.1207318,49.5803584 25.2036428,49.5778247 C25.3709651,49.5669225 25.5388111,49.5669225 25.7061335,49.5778247 C25.7834987,49.5801917 25.86067,49.5869593 25.9372792,49.5980947 C26.0099042,49.604598 26.0820638,49.6155985 26.1533502,49.6310334 L26.2362612,49.6310334 C26.2930459,49.6404513 26.3492495,49.6531408 26.4045955,49.6690396 L26.4799691,49.684242 L26.6709156,49.7399845 C26.7337269,49.7577207 26.7990507,49.7805244 26.8593496,49.8033281 C26.9196485,49.8261319 26.9648727,49.8438681 27.0176342,49.8641381 L27.1558191,49.924948 L27.1960184,49.945218 C27.2502223,49.9683338 27.3030703,49.9945586 27.354303,50.0237641 L27.4146018,50.0567028 C27.4791096,50.0874711 27.5412554,50.1230419 27.6005234,50.1631202 C27.7376305,50.2467323 27.8693765,50.3389746 27.9949786,50.4392986 C28.187933,50.5909461 28.36627,50.7606144 28.5276187,50.946048 C28.5877056,51.0002927 28.6439544,51.0587115 28.6959531,51.1208765 L28.700978,51.125944 Z M25.4724753,40.7654606 C25.3611859,40.766004 25.2518138,40.7362405 25.1559062,40.6793057 L15.5884834,35.021449 C15.3955041,34.9078847 15.2769391,34.6994855 15.2769391,34.4741597 L15.2769391,23.5030358 C15.2769391,23.27771 15.3955041,23.0693107 15.5884834,22.9557465 L25.1559062,17.2978898 C25.3517999,17.183832 25.5931507,17.183832 25.7890444,17.2978898 L35.3564672,22.9557465 C35.5494465,23.0693107 35.6680119,23.27771 35.6680119,23.5030358 L35.6680119,34.4741597 C35.668266,34.7055283 35.5429207,34.9184765 35.3413925,35.0290502 L35.3137555,35.0442527 L25.7890444,40.6793057 C25.6931368,40.7362405 25.5837647,40.766004 25.4724753,40.7654606 Z M16.5331659,34.1118339 L25.4724753,39.3972298 L34.4117847,34.1093001 L34.4117847,23.8653616 L25.4724753,18.5799657 L16.5331659,23.8653616 L16.5331659,34.1118339 Z" id="Shape"></path>
            <path d="M7.38281033,18.8080029 C7.16748212,18.8080509 6.96713744,18.6968592 6.851962,18.5133808 C6.73678656,18.3299025 6.72283536,18.0997137 6.81499585,17.9034553 C6.87275459,17.7816626 6.92309705,17.6564321 6.96574306,17.5284607 C7.07675024,17.1968149 7.43333203,17.0187145 7.76219081,17.1306625 C8.09104956,17.2426105 8.26765315,17.6022144 8.156646,17.9338602 C8.09742293,18.1072729 8.02692117,18.2765569 7.94559991,18.4406096 C7.84488417,18.6630887 7.62531747,18.8064235 7.38281033,18.8080029 Z" id="Shape"></path>
            <path d="M7.55616962,18.3645972 C7.48867236,18.3645763 7.42163058,18.3534506 7.3576858,18.3316585 C7.0306144,18.221927 6.85233925,17.8668778 6.9582057,17.536062 C6.99866019,17.410492 7.03221062,17.2827658 7.05870384,17.1534662 C7.12281763,16.8350137 7.41548017,16.6171386 7.73613219,16.6491489 C8.05678419,16.6811592 8.30140947,16.9526711 8.3023683,17.2776198 C8.30607216,17.31892 8.30607216,17.3604731 8.3023683,17.4017734 C8.26861417,17.5821565 8.22244075,17.7599491 8.16418336,17.9338602 C8.07514548,18.1948871 7.82985957,18.3686557 7.55616962,18.3645972 Z" id="Shape"></path>
            <path d="M22.8595237,52.0051542 C22.7069261,52.0057506 22.5594168,51.9498531 22.4449689,51.8480619 C22.1861268,51.6175588 22.1592472,51.219984 22.38467,50.956183 C22.5470047,50.7708168 22.7261685,50.601162 22.9198226,50.4494336 C23.192484,50.2325345 23.5878736,50.279612 23.8029499,50.5545841 C24.0180263,50.8295564 23.9713445,51.228297 23.6986832,51.4451961 C23.5656084,51.5505592 23.4420183,51.6675658 23.3293525,51.7948532 C23.2102463,51.9301433 23.0389132,52.006834 22.8595237,52.0051542 Z" id="Shape"></path>
            <path d="M23.3067404,7.66458423 C23.166455,7.66502343 23.0301275,7.61770786 22.9198226,7.53029565 C22.7261685,7.37856721 22.5470047,7.20891254 22.38467,7.02354628 C22.1557177,6.76046853 22.1815896,6.36002634 22.4424564,6.12913364 C22.7033233,5.89824094 23.1004002,5.92433207 23.3293525,6.18740982 C23.4420183,6.31469715 23.5656084,6.43170383 23.6986832,6.53706688 C23.9085675,6.70465602 23.9900576,6.98798372 23.9016707,7.24282126 C23.8132837,7.49765878 23.5744468,7.66799427 23.3067404,7.66712134 L23.3067404,7.66458423 Z" id="Shape"></path>
            <path d="M28.0854269,52.0051645 C27.9056398,52.0061938 27.7342419,51.9285499 27.6155981,51.7923194 C27.5029324,51.6650321 27.3793423,51.5480254 27.2462675,51.4426624 C26.9736062,51.2257632 26.9269243,50.8270227 27.1420006,50.5520503 C27.357077,50.2770783 27.7524665,50.2300007 28.025128,50.4468998 C28.2187822,50.5986282 28.397946,50.7682831 28.5602806,50.9536492 C28.7857035,51.2174503 28.7588237,51.615025 28.4999817,51.8455281 C28.3859033,51.9482378 28.2383539,52.0050523 28.0854269,52.0051645 Z" id="Shape"></path>
            <path d="M27.6382102,7.6645876 C27.3705038,7.66546053 27.1316669,7.49512504 27.0432801,7.24028752 C26.9548929,6.98544997 27.0363831,6.70212227 27.2462675,6.53453313 C27.3793423,6.42917008 27.5029324,6.3121634 27.6155981,6.18487607 C27.8445505,5.92179835 28.2416274,5.89570722 28.5024942,6.12659992 C28.763361,6.35749262 28.789233,6.75793479 28.5602806,7.02101253 C28.397946,7.20637879 28.2187822,7.37603346 28.025128,7.5277619 C27.9151542,7.61608279 27.7787953,7.6643022 27.6382102,7.6645876 Z" id="Shape"></path>
            <path d="M25.4724753,40.7654606 C25.3611859,40.766004 25.2518138,40.7362405 25.1559062,40.6793057 L15.5884834,35.021449 C15.3955041,34.9078847 15.2769391,34.6994855 15.2769391,34.4741597 L15.2769391,23.5030358 C15.2769391,23.27771 15.3955041,23.0693107 15.5884834,22.9557465 L25.1559062,17.2978898 C25.3517999,17.183832 25.5931507,17.183832 25.7890444,17.2978898 L35.3564672,22.9557465 C35.5494465,23.0693107 35.6680119,23.27771 35.6680119,23.5030358 L35.6680119,34.4741597 C35.668266,34.7055283 35.5429207,34.9184765 35.3413925,35.0290502 L35.3137555,35.0442527 L25.7890444,40.6793057 C25.6931368,40.7362405 25.5837647,40.766004 25.4724753,40.7654606 Z M16.5331659,34.1118339 L25.4724753,39.3972298 L34.4117847,34.1093001 L34.4117847,23.8653616 L25.4724753,18.5799657 L16.5331659,23.8653616 L16.5331659,34.1118339 Z" id="Shape"></path>
            <path d="M43.2706957,41.3330124 C43.2293636,41.3325528 43.1881578,41.3283126 43.1475855,41.3203437 C42.8550942,41.2601332 42.6450337,41.0006284 42.6450948,40.6995757 C42.6413909,40.6582754 42.6413909,40.6167224 42.6450948,40.5754221 C42.6788488,40.3950391 42.7250222,40.2172463 42.7832797,40.0433353 C42.8922056,39.7109898 43.2476625,39.5306207 43.577215,39.6404695 C43.9067675,39.7503186 44.0856208,40.108788 43.9766951,40.4411335 C43.9362406,40.5667035 43.9026903,40.6944297 43.876197,40.8237293 C43.8183103,41.1160104 43.5662039,41.3280554 43.2706957,41.3330124 Z" id="Shape"></path>
            <path d="M43.388781,40.879482 C43.3204299,40.8798693 43.2524942,40.868736 43.1877847,40.846533 C42.9328672,40.7588829 42.7612807,40.5176438 42.7606647,40.246035 C42.7604591,40.1771194 42.7714938,40.1086385 42.7933295,40.0433353 C42.8525526,39.8699226 42.9230543,39.7006387 43.0043756,39.5365859 C43.1629368,39.2367094 43.5279003,39.1164547 43.8314411,39.2640693 C44.1349819,39.4116841 44.2689261,39.774562 44.1349797,40.086409 C44.0772209,40.2082016 44.0268786,40.3334321 43.9842325,40.4614035 C43.8930739,40.7134829 43.6548428,40.8807457 43.388781,40.879482 Z" id="Shape"></path>
            <path d="M25.4724753,40.7654531 C25.3611859,40.766004 25.2518138,40.7362405 25.1559062,40.6793057 L15.5884834,35.021449 C15.3955041,34.9078847 15.2769391,34.6994855 15.2769391,34.4741597 L15.2769391,23.5030358 C15.2769391,23.2761737 15.3971136,23.0665972 15.5921738,22.9535916 C15.7872341,22.840586 16.0273267,22.841408 16.2216216,22.9557465 L25.7890444,28.6136032 C25.9820237,28.7271675 26.1005887,28.9355667 26.1005887,29.1608925 L26.1005887,40.1370839 C26.1005887,40.4869214 25.8193728,40.7705206 25.4724753,40.7705206 L25.4724753,40.7654531 Z M16.5331659,34.1118339 L24.8443619,39.0273028 L24.8443619,29.5232183 L16.5331659,24.6077494 L16.5331659,34.1118339 Z" id="Shape"></path>
            <path d="M25.4724753,40.7654606 C25.1255778,40.7654606 24.8443619,40.4818539 24.8443619,40.1320164 L24.8443619,29.1608925 C24.8443619,28.9355667 24.9629269,28.7271675 25.1559062,28.6136032 L34.723329,22.9557465 C34.917624,22.841408 35.1577166,22.840586 35.3527767,22.9535916 C35.5478371,23.0665972 35.6680119,23.2761737 35.6680119,23.5030358 L35.6680119,34.4741597 C35.668266,34.7055283 35.5429207,34.9184765 35.3413925,35.0290502 L35.3137555,35.0442527 L25.7890444,40.6793057 C25.6931368,40.7362405 25.5837647,40.766004 25.4724753,40.7654606 Z M26.1005887,29.5232183 L26.1005887,39.0273028 L34.4117847,34.1093001 L34.4117847,24.6077494 L26.1005887,29.5232183 Z" id="Shape"></path>
            <path d="M25.4724753,29.7943368 C25.3611859,29.7948801 25.2518138,29.7651167 25.1559062,29.7081819 L15.5884834,24.0503251 C15.3953814,23.9368422 15.2766199,23.7284277 15.2766199,23.5030358 C15.2766199,23.277644 15.3953814,23.0692294 15.5884834,22.9557465 L25.1559062,17.2978898 C25.3517999,17.183832 25.5931507,17.183832 25.7890444,17.2978898 L35.3564672,22.9557465 C35.5495691,23.0692294 35.6683306,23.277644 35.6683306,23.5030358 C35.6683306,23.7284277 35.5495691,23.9368422 35.3564672,24.0503251 L25.7890444,29.7081819 C25.6931368,29.7651167 25.5837647,29.7948801 25.4724753,29.7943368 Z M17.1462045,23.5030358 L25.4724753,28.4261059 L33.7987461,23.5030358 L25.4724753,18.5799657 L17.1462045,23.5030358 Z" id="Shape"></path>
            <path d="M25.4724753,18.4786158 C25.1255778,18.4786158 24.8443619,18.1950165 24.8443619,17.8451791 L24.8443619,7.77860284 C24.8443619,7.4287654 25.1255778,7.14516613 25.4724753,7.14516613 C25.8193728,7.14516613 26.1005887,7.4287654 26.1005887,7.77860284 L26.1005887,17.8401116 C26.1019283,18.0089857 26.0363442,18.1714078 25.9184046,18.2912985 C25.800465,18.4111891 25.6399356,18.4786158 25.4724753,18.4786158 Z" id="Shape"></path>
            <path d="M25.4724753,50.6318634 C25.1255778,50.6318634 24.8443619,50.3482641 24.8443619,49.9984267 L24.8443619,39.9318504 C24.8443619,39.5820129 25.1255778,39.2984137 25.4724753,39.2984137 C25.8193728,39.2984137 26.1005887,39.5820129 26.1005887,39.9318504 L26.1005887,49.9984267 C26.1005887,50.3482641 25.8193728,50.6318634 25.4724753,50.6318634 Z" id="Shape"></path>
            <path d="M16.0080631,23.9641777 C15.8976582,23.9640287 15.7892751,23.9342987 15.6940064,23.8780303 L7.06875365,18.8105366 C6.86537396,18.7017668 6.73729192,18.4895102 6.73491896,18.2573622 C6.73261124,18.0252142 6.85638762,17.8103753 7.0575324,17.6974579 C7.25867722,17.5845406 7.50495811,17.5916392 7.69937947,17.715958 L16.3246322,22.7834517 C16.4688502,22.8671807 16.574047,23.0054049 16.6169538,23.1675502 C16.6598606,23.3296954 16.6369413,23.5023987 16.5532655,23.6474594 C16.4400895,23.8430709 16.2326336,23.963586 16.0080631,23.9641777 Z" id="Shape"></path>
            <path d="M43.5621403,40.1370839 C43.4517355,40.1369349 43.3433523,40.1072047 43.2480836,40.0509365 L34.6228308,34.9834428 C34.4194512,34.8746731 34.2913691,34.6624163 34.2889962,34.4302683 C34.2866884,34.1981204 34.4104647,33.9832815 34.6116097,33.870364 C34.8127545,33.7574468 35.0590352,33.7645454 35.2534567,33.8888642 L43.8787094,38.9563579 C44.0230981,39.0405756 44.1283413,39.1792526 44.1712311,39.3418097 C44.2141209,39.5043665 44.1911353,39.6774521 44.1073427,39.8228993 C43.993169,40.0171612 43.7860629,40.1365105 43.5621403,40.1370839 Z" id="Shape"></path>
            <path d="M7.26472502,39.9369316 C6.9782642,39.938805 6.72682921,39.7449891 6.65345939,39.4657302 C6.58008959,39.1864715 6.70337551,38.892529 6.95318079,38.7511244 L15.63622,33.7849805 C15.9380207,33.6121608 16.3215993,33.7187943 16.4929666,34.0231527 C16.6643339,34.3275112 16.5585967,34.7143406 16.256796,34.8871604 L7.5737568,39.8533043 C7.47963047,39.9076108 7.37316565,39.9364167 7.26472502,39.9369316 Z" id="Shape"></path>
            <path d="M34.9996989,24.0731425 C34.713238,24.075016 34.4618029,23.8812 34.3884332,23.6019412 C34.3150633,23.3226825 34.4383494,23.02874 34.6881546,22.8873353 L43.3711938,17.9211915 C43.6729945,17.7483718 44.056573,17.8550051 44.2279404,18.1593637 C44.3993079,18.4637223 44.2935705,18.8505517 43.9917698,19.0233714 L35.3087306,23.9895152 C35.2149696,24.0447106 35.1082642,24.0735815 34.9996989,24.0731425 Z" id="Shape"></path>
        </g>
    </g>
</svg>