<?xml version="1.0" encoding="UTF-8"?>
<svg width="60px" height="60px" viewBox="0 0 60 60" version="1.1" xmlns="http://www.w3.org/2000/svg" xmlns:xlink="http://www.w3.org/1999/xlink">
    <title>chat</title>
    <g id="chat" stroke="none" stroke-width="1" fill="none" fill-rule="evenodd" fill-opacity="0.85">
        <g id="iconfinder_chatbot_01_16_bot_chat_robot_app_artificial_chatbot_dialog_5786646" transform="translate(0.000000, 3.000000)" fill="#000000" fill-rule="nonzero" stroke="#FFFFFF" stroke-width="0.6">
            <path d="M53.288125,20.3868873 L50.715119,20.3868873 C50.6373873,20.3868873 50.5614024,20.3921479 50.4854175,20.3982854 L50.4854175,17.4637029 C50.4854175,14.1424605 47.7936305,11.4402247 44.4852304,11.4402247 L29.3651081,11.4402247 L29.3651081,9.08607056 C31.3066534,8.53983666 32.7372657,6.75208235 32.7372657,4.63027489 C32.7372657,2.07709169 30.6682055,0 28.1240213,0 C25.5807106,0 23.5116504,2.07709169 23.5116504,4.63027489 C23.5116504,6.75208235 24.9413893,8.53983666 26.883808,9.08607056 L26.883808,11.4402247 L11.5086559,11.4402247 C8.20374934,11.4402247 5.5137091,14.1398302 5.5137091,17.4584423 L5.5137091,20.3974086 C5.43859759,20.3912712 5.36173929,20.3860105 5.28400761,20.3860105 L2.71100159,20.3860105 C1.21663184,20.3860105 0,21.6064882 0,23.1066587 L0,32.9879686 C0,34.4881391 1.21575845,35.7094936 2.71100159,35.7094936 L5.28400761,35.7094936 C5.36173929,35.7094936 5.4377242,35.7042329 5.5137091,35.6972187 L5.5137091,39.7374206 C5.5137091,43.0586631 8.20549612,45.7600221 11.5138963,45.7600221 L35.0037119,45.7600221 L39.3130166,52.733053 C39.7505849,53.5282924 40.5558502,54 41.4405939,54 C41.5628685,54 41.6860164,53.9912322 41.8100377,53.9728198 C42.8519916,53.8193833 43.6555102,53.0495705 43.8572632,52.0132166 L43.8808447,45.7600221 L44.4861037,45.7600221 C47.7945039,45.7600221 50.4862909,43.0577863 50.4862909,39.7374206 L50.4862909,35.6980954 C50.5622758,35.7042329 50.6382607,35.7103704 50.7159924,35.7103704 L53.2889984,35.7103704 C54.7842416,35.7103704 56,34.4898927 56,32.9888454 L56,23.1075354 C55.9991266,21.607365 54.7833682,20.3868873 53.288125,20.3868873 Z M5.5137091,32.9888454 C5.5137091,33.1159785 5.41064912,33.2194385 5.28400761,33.2194385 L2.71100159,33.2194385 C2.58436009,33.2194385 2.4813001,33.1159785 2.4813001,32.9888454 L2.4813001,23.1075354 C2.4813001,22.9804023 2.58436009,22.8769423 2.71100159,22.8769423 L5.28400761,22.8769423 C5.41064912,22.8769423 5.5137091,22.9804023 5.5137091,23.1075354 L5.5137091,32.9888454 Z M25.9920771,4.63027489 C25.9920771,3.45100586 26.9484388,2.49093182 28.1240213,2.49093182 C29.2996039,2.49093182 30.2550922,3.45100586 30.2550922,4.63027489 C30.2550922,5.81042069 29.2987305,6.77049473 28.1240213,6.77049473 C26.9484388,6.77049473 25.9920771,5.81042069 25.9920771,4.63027489 Z M48.0041174,23.1075354 L48.0041174,32.9888454 L48.0041174,39.7382974 C48.0041174,41.6856257 46.4259022,43.2708438 44.4852304,43.2708438 L43.803113,43.2708438 C42.4773075,43.2708438 41.3986712,44.3536671 41.3986712,45.684619 L41.3986712,51.3845654 L36.9566112,44.198477 C36.8177423,43.971391 36.6386974,43.7609638 36.4238435,43.5750865 L36.0744877,43.2717206 L11.5138963,43.2717206 C9.57409776,43.2717206 7.9950092,41.6865025 7.9950092,39.7391742 L7.9950092,32.9888454 L7.9950092,23.1075354 L7.9950092,17.4584423 C7.9950092,15.5128676 9.57147759,13.9311565 11.5077825,13.9311565 L44.4852304,13.9311565 C46.4250289,13.9311565 48.0041174,15.5154979 48.0041174,17.4637029 L48.0041174,23.1075354 Z M53.5178265,32.9888454 C53.5178265,33.1159785 53.4147665,33.2194385 53.288125,33.2194385 L50.715119,33.2194385 C50.5884775,33.2194385 50.4854175,33.1159785 50.4854175,32.9888454 L50.4854175,23.1075354 C50.4854175,22.9804023 50.5884775,22.8769423 50.715119,22.8769423 L53.288125,22.8769423 C53.4147665,22.8769423 53.5178265,22.9804023 53.5178265,23.1075354 L53.5178265,32.9888454 Z M34.1460432,37.4867265 C30.2088025,39.002679 26.0392402,39.002679 22.101126,37.4867265 C20.6233507,36.9176963 21.2687857,34.5100586 22.7614087,35.0852263 C26.337066,36.4617708 29.9083565,36.4626476 33.486634,35.0852263 C34.9818772,34.5091818 35.6220718,36.9185731 34.1460432,37.4867265 Z M19.2460152,26.4805079 C18.9115069,28.049944 16.5210393,27.3818377 16.8538008,25.8176622 C17.8215166,21.272435 24.3859135,21.2733118 25.3536292,25.8176622 C25.6872641,27.3835912 23.2941764,28.0473136 22.9605415,26.4805079 C22.4985184,24.3104775 19.7071649,24.3139846 19.2460152,26.4805079 Z M39.3951153,25.8176622 C39.7287501,27.3835912 37.3365358,28.0473136 37.0029009,26.4805079 C36.5408778,24.3104775 33.7495243,24.3139846 33.2883746,26.4805079 C32.9538663,28.049944 30.5625253,27.3818377 30.8952868,25.8176622 C31.8630026,21.2733118 38.4273995,21.2741886 39.3951153,25.8176622 Z" id="Shape"></path>
        </g>
    </g>
</svg>