<?xml version="1.0" encoding="UTF-8"?>
<svg width="60px" height="60px" viewBox="0 0 60 60" version="1.1" xmlns="http://www.w3.org/2000/svg" xmlns:xlink="http://www.w3.org/1999/xlink">
    <title>ios</title>
    <g id="ios" stroke="none" stroke-width="1" fill="none" fill-rule="evenodd" fill-opacity="0.85">
        <g id="iconfinder__apple_2560119" transform="translate(0.000000, 5.000000)" fill="#000000" fill-rule="nonzero">
            <path d="M12.4440533,50 C8.95715003,50 6.3419726,46.2882096 4.81645244,43.8864629 C0.457823387,37.5545852 -1.93942259,27.0742358 1.98334355,20.3056769 C4.16265808,16.5938865 7.86749277,14.1921397 12.0081904,14.1921397 C12.0081904,14.1921397 12.0081904,14.1921397 12.0081904,14.1921397 C13.9695734,14.1921397 15.4950936,14.8471616 17.0206138,15.5021834 C17.8923396,15.720524 18.7640654,16.1572052 19.1999283,16.1572052 C19.6357912,16.1572052 20.507517,15.720524 21.3792428,15.5021834 C23.1226944,14.628821 25.5199404,13.7554585 27.6992549,13.9737991 C29.0068437,13.9737991 33.5834042,14.628821 36.416513,18.7772926 C36.6344445,18.9956332 36.6344445,19.2139738 36.6344445,19.650655 C36.6344445,19.8689956 36.416513,20.0873362 36.1985816,20.3056769 C35.1089243,20.9606987 31.8399525,23.3624454 32.057884,27.9475983 C32.057884,33.6244541 36.6344445,35.8078603 37.2882389,36.0262009 C37.7241018,36.2445415 38.1599647,36.8995633 37.9420332,37.3362445 C37.7241018,38.4279476 36.6344445,41.0480349 34.6730614,43.8864629 C32.9296098,46.5065502 30.7502953,49.7816594 27.0454606,49.7816594 C27.0454606,49.7816594 27.0454606,49.7816594 27.0454606,49.7816594 C25.302009,49.7816594 24.2123517,49.3449782 23.1226944,48.9082969 C22.0330372,48.4716157 21.1613114,48.0349345 19.6357912,48.0349345 C18.110271,48.0349345 17.0206138,48.4716157 16.148888,48.9082969 C15.2771622,49.5633188 14.1875049,50 12.4440533,50 C12.6619847,50 12.4440533,50 12.4440533,50 Z M12.2261218,16.3755459 C8.95715003,16.3755459 5.68817825,18.3406114 3.94472663,21.3973799 C0.239891934,27.9475983 3.29093227,37.7729258 6.77783551,42.7947598 C8.52128713,45.1965066 10.2647387,47.8165939 12.4440533,47.8165939 L12.4440533,48.9082969 L12.6619847,47.8165939 C13.751642,47.8165939 14.6233678,47.3799127 15.4950936,46.9432314 C16.5847509,46.5065502 17.8923396,45.8515284 19.8537227,45.8515284 C21.8151057,45.8515284 23.1226944,46.5065502 24.2123517,46.9432314 C25.0840775,47.3799127 25.9558033,47.5982533 27.0454606,47.5982533 C29.4427066,47.5982533 31.1861582,45.4148472 32.9296098,42.5764192 C34.2371985,40.6113537 35.1089243,38.6462882 35.5447872,37.3362445 C33.8013356,36.2445415 29.8785695,33.4061135 29.8785695,27.7292576 C29.8785695,23.1441048 32.4937469,20.3056769 34.2371985,18.9956332 C31.8399525,16.5938865 28.5709808,16.1572052 27.6992549,16.1572052 C27.4813235,16.1572052 27.263392,16.1572052 27.0454606,16.1572052 C25.5199404,16.1572052 23.7764888,16.8122271 22.4689001,17.4672489 C21.1613114,17.9039301 20.0716541,18.3406114 19.1999283,18.3406114 C18.3282025,18.3406114 17.2385452,17.9039301 16.148888,17.4672489 C14.8412993,16.8122271 13.5337105,16.3755459 12.2261218,16.3755459 Z" id="Shape"></path>
            <path d="M19.4178598,13.1004367 L19.4178598,13.1004367 C19.1999283,13.1004367 18.9819968,13.1004367 18.7640654,13.1004367 C18.3282025,13.1004367 17.8923396,12.6637555 17.6744081,12.2270742 C17.2385452,8.95196507 18.7640654,5.89519651 20.507517,3.930131 C22.4689001,1.74672489 25.5199404,0 28.1351179,0 C28.7889122,0 29.2247751,0.436681223 29.2247751,0.873362445 C29.4427066,3.71179039 28.5709808,6.98689956 26.6095977,9.38864629 C24.8661461,11.5720524 22.0330372,13.1004367 19.4178598,13.1004367 Z M27.263392,2.18340611 C25.5199404,2.62008734 23.5585574,3.71179039 22.2509686,5.24017467 C21.1613114,6.55021834 20.0716541,8.73362445 19.8537227,10.9170306 C21.5971743,10.69869 23.5585574,9.6069869 24.8661461,7.86026201 C26.3916662,6.11353712 27.263392,4.14847162 27.263392,2.18340611 Z" id="Shape"></path>
        </g>
    </g>
</svg>