<?xml version="1.0" encoding="UTF-8"?>
<svg width="60px" height="60px" viewBox="0 0 60 60" version="1.1" xmlns="http://www.w3.org/2000/svg" xmlns:xlink="http://www.w3.org/1999/xlink">
    <title>iot</title>
    <g id="iot" stroke="none" stroke-width="1" fill="none" fill-rule="evenodd" opacity="0.85">
        <g id="iconfinder_internet_of_things_-_house_3429882" transform="translate(0.000000, 7.000000)" fill="#000000" fill-rule="nonzero">
            <path d="M22.0738921,12.1799621 C21.8774119,12.3529327 21.7593947,12.5987735 21.7469701,12.8609709 C21.7345456,13.1231683 21.8287825,13.3791661 22.0080178,13.5701157 C22.184406,13.7651115 22.4306925,13.8816515 22.6926329,13.8940678 C22.9545733,13.9064842 23.2106826,13.8137585 23.4045529,13.6363135 C24.9040018,12.207266 27.2540965,12.207266 28.7535454,13.6363135 C28.93405,13.8100976 29.1755207,13.905257 29.4254632,13.9011047 C29.7032327,13.9011047 29.9674375,13.7804218 30.1500805,13.5701157 C30.3172544,13.3654751 30.3935667,13.1008759 30.3611937,12.838118 C30.3288208,12.5753601 30.1905975,12.3374529 29.9788073,12.1799621 C27.721497,10.1750431 24.3312024,10.1750431 22.0738921,12.1799621 Z M37.3172035,4.71285132 C34.3476267,1.6969862 30.3010333,0 26.0790492,0 C21.857065,0 17.8104716,1.6969862 14.8408948,4.71285132 C14.576537,4.96039211 14.467718,5.33319815 14.5571274,5.68501739 C14.6465367,6.03683662 14.9199146,6.31155696 15.2700145,6.40140542 C15.6201145,6.49125388 15.9910987,6.38190042 16.2374298,6.11624448 C18.8364391,3.47224959 22.3807522,1.98412986 26.0790492,1.98412986 C29.7773461,1.98412986 33.3216592,3.47224959 35.9206685,6.11624448 C36.1049636,6.30376467 36.3566688,6.40875918 36.618936,6.40751476 C36.8803438,6.40446436 37.1304887,6.30012073 37.3172035,6.11624448 C37.4954292,5.92313094 37.5900054,5.66677296 37.5801221,5.40357851 C37.5702387,5.14038407 37.4567056,4.89191784 37.2645041,4.71285132 L37.3172035,4.71285132 Z M26.0263497,5.29539188 C23.1704006,5.2978398 20.4301574,6.42975797 18.3981066,8.44640671 C18.0495986,8.65337344 17.8619654,9.05302311 17.924613,9.45492551 C17.9872605,9.85682791 18.2875151,10.1796781 18.6823077,10.2696402 C19.0771002,10.3596023 19.486564,10.1984771 19.7155924,9.86303943 C23.1844346,6.42057082 28.7628659,6.42057082 32.2317081,9.86303943 C32.4152178,10.052296 32.667022,10.1590362 32.9299756,10.1590362 C33.1929293,10.1590362 33.4447334,10.052296 33.6282431,9.86303943 C34.0135463,9.47536194 34.0135463,8.84732377 33.6282431,8.45964627 C31.6048198,6.44456911 28.8750377,5.30830942 26.0263497,5.29539188 Z" id="Shape"></path>
            <path d="M43.1536659,23.8307733 C42.6109117,23.8379038 42.1726472,24.2783206 42.1655515,24.8237401 L42.1655515,45.0140663 L30.9669217,45.0140663 L30.9669217,32.767475 C30.959826,32.2220554 30.5215615,31.7816387 29.9788073,31.7745081 L22.0738921,31.7745081 C21.5311379,31.7816387 21.0928735,32.2220554 21.0857777,32.767475 L21.0857777,45.0140663 L9.88714792,45.0140663 L9.88714792,24.8237401 C9.88714792,24.2753397 9.44475404,23.8307733 8.89903353,23.8307733 C8.35331302,23.8307733 7.91091913,24.2753397 7.91091913,24.8237401 L7.91091913,46.0070331 C7.91801487,46.5524527 8.35627934,46.9928694 8.89903353,47 L43.1536659,47 C43.6964201,46.9928694 44.1346846,46.5524527 44.1417803,46.0070331 L44.1417803,24.8237401 C44.1346846,24.2783206 43.6964201,23.8379038 43.1536659,23.8307733 L43.1536659,23.8307733 Z M28.9906929,45.0140663 L23.0620065,45.0140663 L23.0620065,33.7604419 L28.9906929,33.7604419 L28.9906929,45.0140663 Z M17.5680905,10.9486832 C17.2162551,10.5295026 16.5951934,10.4706241 16.1715555,10.8162876 L0.361725152,24.0558458 C0.0380259852,24.3225108 -0.0833604846,24.765197 0.0587306302,25.1608413 C0.200821745,25.5564855 0.575559263,25.8192402 0.994118365,25.8167251 C1.22403622,25.814889 1.44670557,25.7356396 1.62651158,25.5916345 L17.4363419,12.3520764 C17.8534741,11.9985132 17.9120648,11.3744015 17.5680905,10.9486832 L17.5680905,10.9486832 Z M51.6909743,24.0558458 L35.881144,10.8162876 C35.6081424,10.5797857 35.2303228,10.5076087 34.8900063,10.6269451 C34.5496897,10.7462815 34.2985783,11.0390012 34.2312633,11.3948395 C34.1639484,11.7506778 34.2906565,12.1155744 34.5636581,12.3520764 L50.3734884,25.5916345 C50.5532944,25.7356396 50.7759638,25.814889 51.0058816,25.8167251 C51.4244407,25.8192402 51.7991783,25.5564855 51.9412694,25.1608413 C52.0833605,24.765197 51.961974,24.3225108 51.6382748,24.0558458 L51.6909743,24.0558458 Z" id="Shape"></path>
        </g>
    </g>
</svg>