<?xml version="1.0" encoding="UTF-8"?>
<svg width="60px" height="60px" viewBox="0 0 60 60" version="1.1" xmlns="http://www.w3.org/2000/svg" xmlns:xlink="http://www.w3.org/1999/xlink">
    <title>ml</title>
    <g id="ml" stroke="none" stroke-width="1" fill="none" fill-rule="evenodd" fill-opacity="0.85">
        <g id="iconfinder_003_neuron_neuronal_connections_neural_network_science_biology_medicine_364538" transform="translate(0.000000, 2.000000)" fill="#000000" fill-rule="nonzero">
            <path d="M49.1807767,24.6418667 C45.9718642,24.6418667 43.3615534,22.0117333 43.3615534,18.7805333 C43.3615534,18.1673333 43.4810884,17.5877333 43.6552944,17.0324 C43.3606267,17.0006667 43.0641058,16.9810667 42.7666582,16.9810667 C38.874821,16.9810667 35.5519333,19.6102667 34.5511751,23.4005333 C35.1488501,24.3189333 35.5222812,25.3325333 35.7224328,26.3741333 C38.4346727,25.0581333 41.6778704,25.4174667 44.0370651,27.4344 C44.4327352,27.7722667 44.7783675,28.1596 45.0971275,28.5684 C45.1721843,28.5581333 45.242608,28.5338667 45.3185915,28.5273333 C47.9409485,28.3061333 50.2232331,30.31 50.4345043,32.9009333 C50.646702,35.5273333 48.6998568,37.8382667 46.0923258,38.0529333 C45.9607447,38.0641333 45.8310168,38.0697333 45.7012889,38.0697333 C43.2512846,38.0697333 41.1765647,36.1414667 40.9773397,33.6793333 C40.827226,31.8304 41.7603403,30.1541333 43.2281189,29.2394667 C43.1020975,29.1088 42.9770028,28.9753333 42.8380086,28.8568 C40.8559515,27.1628 38.0519754,27.02 35.8790329,28.4321333 C35.7798838,30.2418667 35.1090051,32.0273333 33.8589841,33.4842667 C37.8434841,35.0532 40.5140258,38.8789333 40.5140258,43.2824 C40.5140258,44.2036 40.3676186,45.1061333 40.1331817,45.9862667 C41.1580322,47.0512 41.7946256,48.496 41.7946256,50.0910667 C41.7946256,53.3493333 39.1630023,56 35.9290708,56 C32.6942128,56 30.0625895,53.3493333 30.0625895,50.0910667 C30.0625895,46.8328 32.6942128,44.1821333 35.9290708,44.1821333 C36.8603319,44.1821333 37.7295089,44.422 38.5125095,44.8130667 C38.6023924,44.3090667 38.6607699,43.7994667 38.6607699,43.2824 C38.6607699,39.3428 36.0504591,35.98 32.2837166,34.9412 C31.279252,35.6365333 30.1404262,36.0929333 28.93581,36.2936 C30.2201162,39.0945333 29.8235195,42.4405333 27.7988375,44.842 C27.3225508,45.4085333 26.7563811,45.8733333 26.1494398,46.2821333 C26.1883582,46.4734667 26.2383961,46.6592 26.2550754,46.858 C26.3616376,48.1674667 25.9548479,49.4414667 25.1097633,50.4429333 C24.2656053,51.4453333 23.0841547,52.0566667 21.7831691,52.1630667 C21.648808,52.1742667 21.514447,52.1798667 21.3810126,52.1798667 C18.8587314,52.1798667 16.7219274,50.1946667 16.516216,47.6597333 C16.4105804,46.3493333 16.8164434,45.0762667 17.6606015,44.0738667 C18.5056861,43.0714667 19.6871367,42.4610667 20.9871957,42.3537333 C22.8098728,42.2006667 24.4639036,43.1106667 25.419257,44.5349333 C25.7685957,44.268 26.0984753,43.9749333 26.3857299,43.6342667 C28.1194508,41.5781333 28.2853172,38.6213333 26.8453374,36.3458667 C25.0124674,36.1853333 23.2991323,35.4582667 21.9360627,34.1982667 C20.4293657,38.22 16.5921995,40.9901333 12.2370483,40.9901333 C11.6903378,40.9901333 11.1482605,40.9322667 10.6117429,40.8464 C9.56187347,42.3845333 7.80591357,43.3972 5.81737006,43.3972 C2.60938421,43.3972 0,40.7689333 0,37.5377333 C0,34.3065333 2.60938421,31.6782667 5.81737006,31.6782667 C9.02442928,31.6782667 11.6347401,34.3065333 11.6347401,37.5377333 C11.6347401,38.0744 11.5402241,38.5849333 11.4049364,39.0786667 C11.6810715,39.1057333 11.9590599,39.1234667 12.2370483,39.1234667 C16.190043,39.1234667 19.6055935,36.3328 20.5099823,32.4538667 C19.9614186,31.57 19.5703816,30.6152 19.3785696,29.6221333 C18.2795889,30.1802667 17.0851655,30.4752 15.8870356,30.4752 C14.1097633,30.4752 12.3380507,29.8629333 10.9119703,28.6430667 C10.2948362,28.1166667 9.79909022,27.4848 9.37932777,26.7997333 C9.34874905,26.8025333 9.32002359,26.8137333 9.28944487,26.8156 C9.1578637,26.8268 9.02720917,26.8324 8.89840788,26.8324 C6.44747704,26.8324 4.37090388,24.9032 4.17075225,22.4392 C3.95855446,19.8118667 5.90725297,17.4990667 8.51571056,17.2844 C11.1297279,17.0669333 13.4222054,19.068 13.6334765,21.6608 C13.7372589,22.9338667 13.3415887,24.1705333 12.521523,25.1449333 C12.1462387,25.5892 11.6968242,25.9438667 11.2057114,26.2192 C11.470727,26.5822667 11.764468,26.9238667 12.1110269,27.2206667 C14.1366355,28.952 17.0712661,29.0481333 19.2460618,27.5296 C19.3489175,25.6974667 20.062421,23.9092 21.3448741,22.4504 C17.3047763,20.9832 14.5943897,17.192 14.5943897,12.7512 C14.5943897,11.9616 14.7065117,11.1841333 14.8807177,10.4206667 C13.5361806,9.34826667 12.6549575,7.70933333 12.6549575,5.85106667 C12.6549575,2.62453333 15.2606352,0 18.4639879,0 C21.6664139,0 24.2730183,2.62453333 24.2730183,5.85106667 C24.2730183,9.0776 21.6664139,11.7012 18.4639879,11.7012 C17.798669,11.7012 17.1694887,11.5649333 16.5727403,11.3568 C16.4976834,11.816 16.4476455,12.2808 16.4476455,12.7512 C16.4476455,16.7412 19.1246736,20.0816 22.9775925,20.9822667 C23.9551849,20.3308 25.0569455,19.9052 26.2189369,19.7157333 C24.8039761,16.828 25.1709207,13.3588 27.2975318,10.8369333 C27.5366018,10.5522667 27.8229298,10.3114667 28.0990649,10.0622667 C28.0462472,9.8308 27.9934294,9.59933333 27.9730436,9.3576 C27.7506529,6.60613333 29.7910875,4.18413333 32.5227866,3.9592 C35.271165,3.72773333 37.661865,5.82586667 37.8814759,8.54093333 C38.1047932,11.2924 36.0643585,13.7144 33.3326594,13.9393333 C33.1955185,13.9505333 33.0583776,13.9561333 32.9230899,13.9561333 C31.2838851,13.9561333 29.8114733,13.1264 28.9015247,11.8598667 C28.8412939,11.9252 28.7671637,11.9765333 28.7106394,12.0446667 C26.8749895,14.2221333 26.7489681,17.3124 28.3427681,19.67 C30.1237469,19.8370667 31.7888973,20.5389333 33.126948,21.7466667 C34.6753433,17.7753333 38.4383792,15.1144 42.7666582,15.1144 C43.36248,15.1144 43.9536686,15.1825333 44.5365176,15.2852 C45.5993598,13.8572 47.2774829,12.9182667 49.1807767,12.9182667 C52.3896892,12.9182667 55,15.5484 55,18.7805333 C55,22.0117333 52.3896892,24.6418667 49.1807767,24.6418667 Z M42.8241092,33.5272 C42.9529105,35.1073333 44.3474855,36.3253333 45.9412855,36.1928 C47.5304524,36.0621333 48.7165361,34.6537333 48.5877348,33.0530667 C48.4654199,31.5532 47.2014995,30.3781333 45.7096285,30.3781333 C45.6299385,30.3781333 45.5502485,30.3809333 45.4705585,30.3874667 C43.8813916,30.5190667 42.6943813,31.9265333 42.8241092,33.5272 Z M35.9290708,46.0488 C33.7153568,46.0488 31.9158453,47.8622667 31.9158453,50.0910667 C31.9158453,52.3198667 33.7153568,54.1333333 35.9290708,54.1333333 C38.1409317,54.1333333 39.9413697,52.3198667 39.9413697,50.0910667 C39.9413697,47.8622667 38.1409317,46.0488 35.9290708,46.0488 Z M21.3893522,44.2045333 C21.3068823,44.2045333 21.2225592,44.2073333 21.138236,44.2138667 C20.3311431,44.2810667 19.5981804,44.66 19.073709,45.2825333 C18.5501643,45.9041333 18.2971948,46.6946667 18.3639121,47.5076 C18.4982731,49.1642667 19.9669784,50.4336 21.6330553,50.3029333 C22.4401483,50.2366667 23.1731109,49.8568 23.6966557,49.2352 C24.2211271,48.6136 24.4731699,47.8230667 24.4073793,47.0101333 C24.2804313,45.4365333 22.9544268,44.2045333 21.3893522,44.2045333 Z M5.81737006,33.5449333 C3.63145481,33.5449333 1.85325583,35.336 1.85325583,37.5377333 C1.85325583,39.7394667 3.63145481,41.5305333 5.81737006,41.5305333 C8.00328532,41.5305333 9.78148429,39.7394667 9.78148429,37.5377333 C9.78148429,35.336 8.00328532,33.5449333 5.81737006,33.5449333 Z M11.7867071,21.8129333 C11.6643922,20.3112 10.3995451,19.1352 8.90674754,19.1352 C8.82798416,19.1352 8.74736753,19.1389333 8.66675091,19.1454667 C7.0766574,19.2761333 5.88872041,20.6864 6.01752169,22.288 C6.14632297,23.8690667 7.53997136,25.0861333 9.13747789,24.9554667 C10.728498,24.8248 11.916435,23.4145333 11.7867071,21.8129333 Z M18.4639879,9.83546667 C20.64527,9.83546667 22.4197624,8.04813333 22.4197624,5.85106667 C22.4197624,3.654 20.64527,1.86666667 18.4639879,1.86666667 C16.2836324,1.86666667 14.5082133,3.654 14.5082133,5.85106667 C14.5082133,8.04813333 16.2836324,9.83546667 18.4639879,9.83546667 Z M33.1816191,12.0782667 C34.8949541,11.9373333 36.1746272,10.4188 36.0347064,8.69306667 C35.9040519,7.0756 34.5409822,5.80906667 32.9323562,5.80906667 C32.8471064,5.80906667 32.7600034,5.81186667 32.673827,5.81933333 C30.960492,5.96026667 29.6798922,7.47973333 29.819813,9.20546667 C29.9588072,10.9088 31.4692107,12.2173333 33.1816191,12.0782667 Z M32.1604751,23.38 C30.9336197,22.1452 29.3027546,21.4648 27.5681072,21.4648 C25.8325331,21.4648 24.2016679,22.1452 22.9757392,23.38 C20.4432651,25.9308 20.4432651,30.0804 22.9757392,32.6312 C24.2016679,33.8669333 25.8325331,34.5464 27.5681072,34.5464 C29.3027546,34.5464 30.9345464,33.8669333 32.1604751,32.6312 C34.6920226,30.0804 34.6920226,25.9308 32.1604751,23.38 Z M49.1807767,14.7849333 C46.9939348,14.7849333 45.2148092,16.5769333 45.2148092,18.7805333 C45.2148092,20.9832 46.9939348,22.7752 49.1807767,22.7752 C51.3676186,22.7752 53.1467442,20.9832 53.1467442,18.7805333 C53.1467442,16.5769333 51.3676186,14.7849333 49.1807767,14.7849333 Z" id="Shape"></path>
        </g>
    </g>
</svg>