<?xml version="1.0" encoding="UTF-8"?>
<svg width="60px" height="60px" viewBox="0 0 60 60" version="1.1" xmlns="http://www.w3.org/2000/svg" xmlns:xlink="http://www.w3.org/1999/xlink">
    <title>web</title>
    <g id="web" stroke="none" stroke-width="1" fill="none" fill-rule="evenodd" stroke-linecap="round" stroke-linejoin="round" stroke-opacity="0.85">
        <g id="iconfinder_computer-mac_2387777" transform="translate(1.000000, 9.000000)" stroke="#000000" stroke-width="1.8">
            <g id="Group">
                <path d="M26.8890844,34.5871894 C26.8890844,34.5871894 27.035106,38.6892172 29.1726509,40.5739808 C29.7197921,41.0558401 29.1568173,42 28.4302279,42 L15.6436625,42 C14.9170732,42 14.3382647,41.0540621 14.8854058,40.5704246 C17.012395,38.6892172 17.1109156,34.5889674 17.1109156,34.5889674" id="Path"></path>
                <path d="M41.0672531,34.5871894 L2.9327469,34.5871894 C1.31243503,34.5871894 0,33.2589645 0,31.623132 L0,2.96405741 C0,1.32644681 1.31419432,0 2.9327469,0 L41.0672531,0 C42.687565,0 44,1.32822488 44,2.96405741 L44,31.623132 C44,33.2607426 42.687565,34.5871894 41.0672531,34.5871894 Z" id="Path"></path>
                <line x1="0.978168733" y1="27.1761568" x2="43.0235906" y2="27.1761568" id="Path"></line>
                <line x1="21.0218313" y1="30.8816731" x2="22.9781687" y2="30.8816731" id="Path"></line>
            </g>
        </g>
    </g>
</svg>